<svg xmlns="http://www.w3.org/2000/svg" viewBox="0 0 133.69 21.75"><defs><style>.cls-1{fill:#fff;}</style></defs><title>Asset 6</title><g id="Layer_2" data-name="Layer 2"><g id="Layer_1-2" data-name="Layer 1"><path class="cls-1" d="M0,9.5V21.75H133.69V.11A2,2,0,0,1,131.77,0c.38.35-2.26.76-2,.23-.12-.49-2.11.06-2,.28a5.35,5.35,0,0,0-2,.26c.17-.48-2.1.3-1.91.63a4.93,4.93,0,0,0-2,.08c.26-.51-2.11-.42-2.11,0,0-.13-2.37.86-2.37.68,0,0-2.18-.31-2.18-.55,0-.45-2.6,0-2.6.14a22.13,22.13,0,0,0-2.28-.27c0,.27-1.3-1-1.3-1,0-.3-2.08.85-2.08.49,0,.37-2.16-.36-2.16-.42a4.86,4.86,0,0,1-2,.36c0,.17-1.49.68-1.49,1,0-.41-2.08.07-2.08.17,0,.44-1.87.58-1.87.45,0-.45-2.42-.06-2.42-.29,0,0-1.58.65-1.58.86,0,0-2.09.36-2.09.17,0,0-2.22.38-2.22,0,0-.25-1.39.8-1.39,1.13,0-.13-2.18.08-2.18,0s-2.23.39-2.23.46c0-.38-1.19-1-1.19-.85s-2,.36-2,0c0,.12-1.64-.17-1.64-.51,0,.32-2,0-2,.18,0-.44-1.52,1.44-1.52.84,0,0-2.1-.19-2.1-.17,0-.22-1.65,1-1.65.74S69,4.49,69,4.58c0-.06-1.67,1.37-1.67,1s-2,.47-2,0c0,.15-2-.23-2,.06a5.5,5.5,0,0,0-2-.08c0-.24-2.12.9-2.12.57,0,.24-2.17.39-2.17.32,0,.25-2.29-.35-2.29-.44s-2.18.7-2.18.24-2.14.77-2.14.45c0-.15-2.26-.73-2.26-.25,0-.7-2.06.73-2.06.91,0,.34-2.11,0-2.11-.23,0,.43-2.08.69-2.08-.08,0-.3-2,.59-2,.55s-2.08,0-2.08-.16c0,0-2-.23-2,.21,0-.24-2,.41-2,.7A18.42,18.42,0,0,0,31.8,8c0-.28-2,0-2-.24,0,.3-2,.11-2,.16,0,.3-2,.39-2,.13,0,.24-2,.27-2-.06,0-.14-2.1.62-2.1.28,0-.08-2,.42-2-.09a7.75,7.75,0,0,0-2.09.14,12.27,12.27,0,0,1-2,0c0,.92-2.1.07-2.1.28a6,6,0,0,0-1.89-.67c0-.58-2,.52-2.16.8,0,.51-2.79-.44-2.19-.51-.42.16-1.54.05-2.11.36a6.76,6.76,0,0,1-2,.51c-.35.21-2.07,0-2.12.22C1.13,9.33.59,9.43,0,9.5Z"/></g></g></svg>