<svg xmlns="http://www.w3.org/2000/svg" width="551" height="360.56" viewBox="0 0 551 360.56">
  <g id="Group_6" data-name="Group 6" transform="translate(-146 -598.615)">
    <g id="Background_Shape_2" data-name="Background Shape 2" transform="translate(203.194 758.106)" opacity="0.6">
      <path id="Background_Shape" data-name="Background Shape" d="M493.59,100.387c7.2,44.869-167.367,74.135-317.619,53.711S-43.21,53.914,28.488,11.416,486.392,55.518,493.59,100.387Z" transform="translate(0 0)" fill="rgba(166,97,13,0.3)"/>
    </g>
    <g id="Web" transform="translate(421.312 640.526)">
      <rect id="Container" width="197.56" height="204.047" rx="8" fill="#f2f2f2"/>
      <rect id="Background" width="41.281" height="47.768" rx="8" transform="translate(146.843 25.358)" fill="#fff"/>
      <g id="Profile_Info" data-name="Profile Info" transform="translate(152.74 34.204)">
        <circle id="Avatar" cx="9.436" cy="9.436" r="9.436" transform="translate(5.308)" fill="#dde3e9"/>
        <rect id="Name" width="29.487" height="3.538" rx="1.769" transform="translate(0 21.23)" fill="#dde3e9"/>
        <rect id="Name-2" data-name="Name" width="20.051" height="3.538" rx="1.769" transform="translate(4.718 27.128)" fill="#dde3e9"/>
      </g>
      <path id="Header" d="M8,0H189.56a8,8,0,0,1,8,8v7.923a0,0,0,0,1,0,0H0a0,0,0,0,1,0,0V8A8,8,0,0,1,8,0Z" fill="#c5cfd6"/>
      <g id="Buttons" transform="translate(5.308 5.897)">
        <circle id="buttons-2" data-name="buttons" cx="2.359" cy="2.359" r="2.359" fill="#f2f2f2"/>
        <circle id="buttons-3" data-name="buttons" cx="2.359" cy="2.359" r="2.359" transform="translate(7.077)" fill="#f2f2f2"/>
        <circle id="buttons-4" data-name="buttons" cx="2.359" cy="2.359" r="2.359" transform="translate(14.154)" fill="#f2f2f2"/>
      </g>
      <g id="Components" transform="translate(146.843 77.844)">
        <rect id="Background-2" data-name="Background" width="41.281" height="114.408" rx="8" fill="#fff"/>
        <g id="Rows" transform="translate(10.615 10.615)">
          <rect id="Data" width="20.051" height="15.333" rx="4" fill="#dde3e9"/>
          <rect id="Data-2" data-name="Data" width="20.051" height="14.743" rx="4" transform="translate(0 20.051)" fill="#afb9c5"/>
          <rect id="Data-3" data-name="Data" width="20.051" height="14.743" rx="4" transform="translate(0 39.512)" fill="#dde3e9"/>
          <rect id="Data-4" data-name="Data" width="20.051" height="14.743" rx="4" transform="translate(0 78.434)" fill="#dde3e9"/>
          <rect id="Data-5" data-name="Data" width="20.051" height="14.743" rx="4" transform="translate(0 58.973)" fill="#c5cfd6"/>
        </g>
      </g>
      <g id="Rows-2" data-name="Rows" transform="translate(9.436 25.948)">
        <g id="Row">
          <rect id="Container-2" data-name="Container" width="132.689" height="27.717" rx="4" fill="#fff"/>
          <g id="Text_Stuff" data-name="Text Stuff" transform="translate(5.308 8.315)">
            <rect id="Label" width="98.485" height="4.158" rx="2.079" fill="#dde3e9"/>
            <rect id="Label-2" data-name="Label" width="66.106" height="4.158" rx="2.079" transform="translate(0 6.929)" fill="#dde3e9"/>
          </g>
          <g id="Check" transform="translate(114.381 9.731)">
            <circle id="Background-3" data-name="Background" cx="4.128" cy="4.128" r="4.128" fill="#dde3e9"/>
            <circle id="Indicator" cx="1.769" cy="1.769" r="1.769" transform="translate(2.359 2.359)" fill="#f2f2f2"/>
          </g>
        </g>
        <g id="Row-2" data-name="Row" transform="translate(0 32.435)">
          <rect id="Container-3" data-name="Container" width="132.689" height="23" rx="4" fill="#fff"/>
          <g id="Text_Stuff-2" data-name="Text Stuff" transform="translate(5.308 6.9)">
            <rect id="Label-3" data-name="Label" width="98.485" height="3.45" rx="1.725" fill="#dde3e9"/>
            <rect id="Label-4" data-name="Label" width="66.106" height="3.45" rx="1.725" transform="translate(0 5.75)" fill="#dde3e9"/>
          </g>
          <g id="Check-2" data-name="Check" transform="translate(114.381 7.372)">
            <circle id="Background-4" data-name="Background" cx="4.128" cy="4.128" r="4.128" fill="#dde3e9"/>
            <circle id="Indicator-2" data-name="Indicator" cx="1.769" cy="1.769" r="1.769" transform="translate(2.359 2.359)" fill="#f2f2f2"/>
          </g>
        </g>
        <g id="Row-3" data-name="Row" transform="translate(0 60.153)">
          <rect id="Container-4" data-name="Container" width="132.689" height="23" rx="4" fill="#fff"/>
          <g id="Text_Stuff-3" data-name="Text Stuff" transform="translate(5.308 6.9)">
            <rect id="Label-5" data-name="Label" width="98.485" height="3.45" rx="1.725" fill="#dde3e9"/>
            <rect id="Label-6" data-name="Label" width="66.106" height="3.45" rx="1.725" transform="translate(0 5.75)" fill="#dde3e9"/>
          </g>
          <g id="Check-3" data-name="Check" transform="translate(114.381 7.372)">
            <circle id="Background-5" data-name="Background" cx="4.128" cy="4.128" r="4.128" fill="#dde3e9"/>
            <circle id="Indicator-3" data-name="Indicator" cx="1.769" cy="1.769" r="1.769" transform="translate(2.359 2.359)" fill="#afb9c5"/>
          </g>
        </g>
        <g id="Row-4" data-name="Row" transform="translate(0 143.305)">
          <rect id="Container-5" data-name="Container" width="132.689" height="23" rx="4" fill="#fff"/>
          <g id="Text_Stuff-4" data-name="Text Stuff" transform="translate(5.308 6.9)">
            <rect id="Label-7" data-name="Label" width="98.485" height="3.45" rx="1.725" fill="#dde3e9"/>
            <rect id="Label-8" data-name="Label" width="66.106" height="3.45" rx="1.725" transform="translate(0 5.75)" fill="#dde3e9"/>
          </g>
          <g id="Check-4" data-name="Check" transform="translate(114.381 7.372)">
            <circle id="Background-6" data-name="Background" cx="4.128" cy="4.128" r="4.128" fill="#dde3e9"/>
            <circle id="Indicator-4" data-name="Indicator" cx="1.769" cy="1.769" r="1.769" transform="translate(2.359 2.359)" fill="#f2f2f2"/>
          </g>
        </g>
        <g id="Row-5" data-name="Row" transform="translate(0 115.587)">
          <rect id="Container-6" data-name="Container" width="132.689" height="23" rx="4" fill="#fff"/>
          <g id="Text_Stuff-5" data-name="Text Stuff" transform="translate(5.308 6.9)">
            <rect id="Label-9" data-name="Label" width="98.485" height="3.45" rx="1.725" fill="#dde3e9"/>
            <rect id="Label-10" data-name="Label" width="66.106" height="3.45" rx="1.725" transform="translate(0 5.75)" fill="#dde3e9"/>
          </g>
          <g id="Check-5" data-name="Check" transform="translate(114.381 7.372)">
            <circle id="Background-7" data-name="Background" cx="4.128" cy="4.128" r="4.128" fill="#dde3e9"/>
            <circle id="Indicator-5" data-name="Indicator" cx="1.769" cy="1.769" r="1.769" transform="translate(2.359 2.359)" fill="#f2f2f2"/>
          </g>
        </g>
        <g id="Row-6" data-name="Row" transform="translate(0 87.87)">
          <rect id="Container-7" data-name="Container" width="132.689" height="23" rx="4" fill="#fff"/>
          <g id="Text_Stuff-6" data-name="Text Stuff" transform="translate(5.308 6.9)">
            <rect id="Label-11" data-name="Label" width="98.485" height="3.45" rx="1.725" fill="#dde3e9"/>
            <rect id="Label-12" data-name="Label" width="66.106" height="3.45" rx="1.725" transform="translate(0 5.75)" fill="#dde3e9"/>
          </g>
          <g id="Check-6" data-name="Check" transform="translate(114.381 7.372)">
            <circle id="Background-8" data-name="Background" cx="4.128" cy="4.128" r="4.128" fill="#dde3e9"/>
            <circle id="Indicator-6" data-name="Indicator" cx="1.769" cy="1.769" r="1.769" transform="translate(2.359 2.359)" fill="#f2f2f2"/>
          </g>
        </g>
      </g>
    </g>
    <g id="Mobile3" transform="translate(293.864 598.615)">
      <rect id="Container-8" data-name="Container" width="93.767" height="178.099" rx="8" fill="#f2f2f2"/>
      <circle id="Touch" cx="8.846" cy="8.846" r="8.846" transform="translate(37.743 149.202)" fill="#fff"/>
      <g id="Camera" transform="translate(37.743 9.436)">
        <circle id="Lens" cx="1.179" cy="1.179" r="1.179" fill="#fff"/>
        <rect id="Sensor" width="12.384" height="2.359" rx="1.179" transform="translate(5.308)" fill="#fff"/>
      </g>
      <g id="Rows-3" data-name="Rows" transform="translate(8.256 16.512)">
        <g id="Row-7" data-name="Row">
          <rect id="Background-9" data-name="Background" width="77.255" height="31.845" rx="4" fill="#fff"/>
          <g id="Text" transform="translate(23 9.554)">
            <rect id="Name-3" data-name="Name" width="43.05" height="4.777" rx="2.388" fill="#dde3e9"/>
            <rect id="Name-4" data-name="Name" width="28.897" height="4.777" rx="2.388" transform="translate(0 7.961)" fill="#dde3e9"/>
          </g>
          <circle id="Avatar-2" data-name="Avatar" cx="7.077" cy="7.077" r="7.077" transform="translate(5.308 8.846)" fill="#c5cfd6"/>
        </g>
        <g id="Row-8" data-name="Row" transform="translate(0 36.563)">
          <rect id="Background-10" data-name="Background" width="77.255" height="24.769" rx="4" fill="#fff"/>
          <g id="Text-2" data-name="Text" transform="translate(23 7.431)">
            <rect id="Name-5" data-name="Name" width="43.05" height="3.715" rx="1.858" fill="#dde3e9"/>
            <rect id="Name-6" data-name="Name" width="28.897" height="3.715" rx="1.858" transform="translate(0 6.192)" fill="#dde3e9"/>
          </g>
          <circle id="Avatar-3" data-name="Avatar" cx="7.077" cy="7.077" r="7.077" transform="translate(5.308 5.308)" fill="#c5cfd6"/>
        </g>
        <g id="Row-9" data-name="Row" transform="translate(0 66.05)">
          <rect id="Background-11" data-name="Background" width="77.255" height="24.769" rx="4" fill="#fff"/>
          <g id="Text-3" data-name="Text" transform="translate(23 7.431)">
            <rect id="Name-7" data-name="Name" width="43.05" height="3.715" rx="1.858" fill="#dde3e9"/>
            <rect id="Name-8" data-name="Name" width="28.897" height="3.715" rx="1.858" transform="translate(0 6.192)" fill="#dde3e9"/>
          </g>
          <circle id="Avatar-4" data-name="Avatar" cx="7.077" cy="7.077" r="7.077" transform="translate(5.308 5.308)" fill="#afb9c5"/>
        </g>
        <g id="Row-10" data-name="Row" transform="translate(0 95.536)">
          <rect id="Background-12" data-name="Background" width="77.255" height="24.769" rx="4" fill="#fff"/>
          <g id="Text-4" data-name="Text" transform="translate(23 7.431)">
            <rect id="Name-9" data-name="Name" width="43.05" height="3.715" rx="1.858" fill="#dde3e9"/>
            <rect id="Name-10" data-name="Name" width="28.897" height="3.715" rx="1.858" transform="translate(0 6.192)" fill="#dde3e9"/>
          </g>
          <circle id="Avatar-5" data-name="Avatar" cx="7.077" cy="7.077" r="7.077" transform="translate(5.308 5.308)" fill="#c5cfd6"/>
        </g>
      </g>
    </g>
    <g id="Mobile3-2" data-name="Mobile3" transform="translate(339.162 618.491)">
      <rect id="Container-9" data-name="Container" width="93.767" height="178.099" rx="8" transform="translate(0)" fill="#dde3e9"/>
      <circle id="Touch-2" data-name="Touch" cx="8.846" cy="8.846" r="8.846" transform="translate(37.743 149.202)" fill="#fff"/>
      <g id="Camera-2" data-name="Camera" transform="translate(37.743 9.436)">
        <circle id="Lens-2" data-name="Lens" cx="1.179" cy="1.179" r="1.179" fill="#fff"/>
        <rect id="Sensor-2" data-name="Sensor" width="12.384" height="2.359" rx="1.179" transform="translate(5.308)" fill="#fff"/>
      </g>
      <g id="Rows-4" data-name="Rows" transform="translate(8.256 16.512)">
        <g id="Row-11" data-name="Row">
          <rect id="Container-10" data-name="Container" width="77.255" height="31.845" rx="4" fill="#fff"/>
          <g id="Text_Stuff-7" data-name="Text Stuff" transform="translate(5.308 9.554)">
            <rect id="Label-13" data-name="Label" width="43.05" height="4.777" rx="2.388" fill="#dde3e9"/>
            <rect id="Label-14" data-name="Label" width="28.897" height="4.777" rx="2.388" transform="translate(0 7.961)" fill="#dde3e9"/>
          </g>
          <g id="Check-7" data-name="Check" transform="translate(64.87 11.795)">
            <circle id="Background-13" data-name="Background" cx="4.128" cy="4.128" r="4.128" fill="#dde3e9"/>
            <circle id="Indicator-7" data-name="Indicator" cx="1.769" cy="1.769" r="1.769" transform="translate(2.359 2.359)" fill="#f2f2f2"/>
          </g>
        </g>
        <g id="Row-12" data-name="Row" transform="translate(0 36.563)">
          <rect id="Background-14" data-name="Background" width="77.255" height="24.769" rx="4" fill="#fff"/>
          <g id="Text-5" data-name="Text" transform="translate(23 7.431)">
            <rect id="Name-11" data-name="Name" width="43.05" height="3.715" rx="1.858" fill="#dde3e9"/>
            <rect id="Name-12" data-name="Name" width="28.897" height="3.715" rx="1.858" transform="translate(0 6.192)" fill="#dde3e9"/>
          </g>
          <circle id="Avatar-6" data-name="Avatar" cx="7.077" cy="7.077" r="7.077" transform="translate(5.308 5.308)" fill="#c5cfd6"/>
        </g>
        <g id="Row-13" data-name="Row" transform="translate(0 66.05)">
          <rect id="Container-11" data-name="Container" width="77.255" height="24.769" rx="4" fill="#fff"/>
          <g id="Text_Stuff-8" data-name="Text Stuff" transform="translate(5.308 7.431)">
            <rect id="Label-15" data-name="Label" width="43.05" height="3.715" rx="1.858" fill="#dde3e9"/>
            <rect id="Label-16" data-name="Label" width="28.897" height="3.715" rx="1.858" transform="translate(0 6.192)" fill="#afb9c5"/>
          </g>
          <g id="Check-8" data-name="Check" transform="translate(64.87 8.256)">
            <circle id="Background-15" data-name="Background" cx="4.128" cy="4.128" r="4.128" fill="#dde3e9"/>
            <circle id="Indicator-8" data-name="Indicator" cx="1.769" cy="1.769" r="1.769" transform="translate(2.359 2.359)" fill="#f2f2f2"/>
          </g>
        </g>
        <g id="Row-14" data-name="Row" transform="translate(0 95.536)">
          <rect id="Background-16" data-name="Background" width="77.255" height="24.769" rx="4" fill="#fff"/>
          <g id="Text-6" data-name="Text" transform="translate(23 7.431)">
            <rect id="Name-13" data-name="Name" width="43.05" height="3.715" rx="1.858" fill="#dde3e9"/>
            <rect id="Name-14" data-name="Name" width="28.897" height="3.715" rx="1.858" transform="translate(0 6.192)" fill="#dde3e9"/>
          </g>
          <circle id="Avatar-7" data-name="Avatar" cx="7.077" cy="7.077" r="7.077" transform="translate(5.308 5.308)" fill="#c5cfd6"/>
        </g>
      </g>
    </g>
    <g id="Head_Front_Airy" data-name="Head/Front/Airy" transform="matrix(0.996, 0.087, -0.087, 0.996, 170.173, 726.675)">
      <g id="Head" transform="translate(64.213 20.096)">
        <path id="Head-2" data-name="Head" d="M0,38.606,4.313,18.24A14.436,14.436,0,0,1,.552,7.946C1.336-3.371,16.888-.882,19.913,4.83s2.666,20.2-1.244,21.222c-1.559.407-4.881-.59-8.262-2.654L12.53,38.606Z" transform="translate(0 0)" fill="#b28b67"/>
      </g>
      <path id="hair" d="M76.985,18.343c-1.651-.274-6.1-.463-6.918-.463-.524,0-1.092.121-1.4-.366-.254-.4-.161-1.074-.237-1.537-.088-.538-.213-1.069-.34-1.6a16.383,16.383,0,0,0-1.666-4.288,13.073,13.073,0,0,0-6.168-5.657,19.572,19.572,0,0,0-9.364-1.3,40.681,40.681,0,0,0-9.576,2.457,19.826,19.826,0,0,1-9.353.912C28.775,6,26.368,4.253,23.68,2.593A15.28,15.28,0,0,0,14.532.036,17.484,17.484,0,0,0,6.187,3.242,13.737,13.737,0,0,0,.805,9.426a8.56,8.56,0,0,0,.76,8.62c2.806,3.7,8.015,4.661,12.349,4.566a23.324,23.324,0,0,0,7.335-1.362c3.156-1.125,5.884-3.031,8.836-4.577A22.823,22.823,0,0,1,34.4,14.922a4.763,4.763,0,0,1,4.211.284,19.822,19.822,0,0,0,4.242,2.46,13.525,13.525,0,0,0,4.785.87c3.174-.025,6.3-1.027,9.387-1.7,2.514-.547,5.2-1.093,7.768-.567,1.07.22,2.632.673,3.018,1.8-6.5,1.194-9.056,9.339-7.223,15.319.989,3.227,6.936,7,9.248,5.3,1.465-1.075.576-2.486,0-3.418-1.1-1.784-1.479-4.076.56-5.318,1.759-1.071,3.609,1.473,3.644,1.47a22.63,22.63,0,0,0,7.54-5.925c2.84.171,3.27-1.726,2.592-3.277S79.266,18.722,76.985,18.343Z" fill="#2b2c2e"/>
    </g>
    <g id="Bottom_Sitting_Skinny_Jeans_1" data-name="Bottom/Sitting/Skinny Jeans 1" transform="translate(146 854)">
      <g id="Seat" transform="translate(0 24)">
        <g id="Seat-2" data-name="Seat" transform="translate(37.041)">
          <path id="Seat_Stuff" data-name="Seat Stuff" d="M18.6,0H70.631l6.817,73.127H0Z" fill="#c5cfd6"/>
          <path id="Seat_Stuff-2" data-name="Seat Stuff" d="M18.6,0h16l9.577,73.127H0Z" fill="rgba(0,0,0,0.1)"/>
        </g>
      </g>
      <path id="Skin" d="M38.476,83.476c-.674-7.46-1.927-33.287-.673-45.241.529-5.046,1.1-9.846,1.66-14.11C27.435,43.064,7.756,70.771,7.756,70.771L0,67.668S9.136,41.31,14.983,30.452C21.657,18.058,27.914,7.444,30.548,3.705,34.69-2.175,41.9-.123,45.713,3.437c5.547-2.917,14.854.831,14.848,5C60.541,20.92,47.533,79.745,46.854,83.463c-.36,1.968-2.567,3.17-4.628,3.17A3.435,3.435,0,0,1,38.476,83.476Z" transform="translate(121.01 8.804)" fill="#b28b67"/>
      <path id="LegLower" d="M-.762,67.436l6.128-61C8.287-4.182,28.786-.138,28.524,5.5c-.594,12.8-11.093,57.377-11.27,61.192Z" transform="translate(145.345 3.605) rotate(20)" fill="#775746"/>
      <g id="Right_Shoe" data-name="Right Shoe" transform="translate(120.278 65.468) rotate(30)">
        <path id="shoe" d="M3.777,4.351A1.685,1.685,0,0,0,1.611,5.5L0,11.252A55.571,55.571,0,0,0,.761,18H48.382s1.856-6.213-2.143-6.709-6.645-.895-6.645-.895L17.461.406a.841.841,0,0,0-1.124.455L14.913,4.356S11.211,6.1,8.9,6.1Z" transform="translate(0 -0.332)" fill="#2b2c2e"/>
      </g>
      <g id="Right_Shoe-2" data-name="Right Shoe" transform="translate(155.673 85.401)">
        <path id="shoe-2" data-name="shoe" d="M3.013,3.1a1.388,1.388,0,0,0-1.727.8L0,7.865a33.4,33.4,0,0,0,.607,4.656H38.592s1.481-4.286-1.709-4.628-5.3-.617-5.3-.617L13.927.383a.712.712,0,0,0-.9.314L11.9,3.108A16.9,16.9,0,0,1,7.1,4.314Z" transform="translate(0 -0.332)" fill="#2b2c2e"/>
      </g>
      <path id="Leg_and_Butt" data-name="Leg and Butt" d="M115.008,21.486c0,15.667-8.5,52.213-8.5,55.663l-18.282.012S92.238,28.247,91.07,27.72,43.22,31.8,29.219,31.8C9.03,31.8.678,20.653,0,0H39.995c8.143.763,50.619,8.265,66.394,10.844C113.142,11.948,115.008,17.17,115.008,21.486Z" transform="translate(68.428)" fill="#a1775f"/>
    </g>
    <g id="Body_Long_Sleeve" data-name="Body/Long Sleeve" transform="translate(159.494 788)">
      <path id="Skin-2" data-name="Skin" d="M.844,75.482c-.768-.406-1.608-1.934.423-3.128,5.062-2.975,12.355-8.183,13.341-9.9,2.016-3.506,19.654-48.629,19.654-48.629l15.063.049S24.549,61.676,23.488,63.93c-1.592,3.381,1.777,8.532,3.217,11.3-2.27.871-3.325-.241-4.48-1.352-1.231-1.186-2.576-2.371-5.629-1.152-3.907,1.558-7.138,4.032-10.989,4.032A10.027,10.027,0,0,1,.844,75.482ZM119.58,8.44l27.16-3.176A65.168,65.168,0,0,1,161.735,0c1.284-.032,3.327.368.284,2.543s-6.131,4.581-5.589,5.742,3.372.729,3.841,2.514q.469,1.785-13.78.58l-22.038,7.491Z" transform="translate(0 30.076)" fill="#997659"/>
      <path id="Clothes_Back" data-name="Clothes Back" d="M0,.317,11.806-.04c4.857,22.19,21.858,34.986,56.726,27.1l7.217,28.491C43.087,62.091,13.172,53.3,4.562,23.17,2.333,15.37.4,7.219,0,.317Z" transform="matrix(0.996, 0.087, -0.087, 0.996, 75.55, 2.633)" fill="#d9d9d9"/>
      <path id="Clothes" d="M0,86.691Q12.282,30.663,51.849,0h1.17l.009.009L70.9,3.518c0,26.348,9.79,43.16,14.812,62.532H37.45c-.68,6.694-1.1,13.575-1.315,20.641Z" transform="translate(16.674)" fill="#f2f2f2"/>
      <path id="Shade" d="M9.807,38.569H0A174.5,174.5,0,0,1,7.941,0C7.1,12.179,6.735,28.756,9.808,38.569Z" transform="translate(54.124 27.481)" fill="rgba(0,0,0,0.1)"/>
    </g>
  </g>
</svg>
