<svg xmlns="http://www.w3.org/2000/svg" width="786.479" height="347.446" viewBox="0 0 786.479 347.446">
  <g id="Group_9" data-name="Group 9" transform="translate(1171 -6704.554)">
    <path id="Background_Shape" data-name="Background Shape" d="M786.135,173.634c11.464,77.607-266.564,128.227-505.869,92.9S-68.821,93.253,45.372,19.745,774.671,96.027,786.135,173.634Z" transform="translate(-1171 6774)" fill="#dde3e9"/>
    <path id="twitter" d="M97.65,0H7.59A7.59,7.59,0,0,0,0,7.59V97.65a7.59,7.59,0,0,0,7.59,7.59H97.65a7.59,7.59,0,0,0,7.59-7.59V7.59A7.59,7.59,0,0,0,97.65,0Zm-21,41.027q.035.777.035,1.561c0,15.96-12.148,34.363-34.364,34.364h0A34.187,34.187,0,0,1,23.8,71.527a24.564,24.564,0,0,0,2.881.167,24.234,24.234,0,0,0,15-5.17A12.091,12.091,0,0,1,30.4,58.135a12.038,12.038,0,0,0,5.455-.207,12.081,12.081,0,0,1-9.69-11.839c0-.055,0-.1,0-.154a11.994,11.994,0,0,0,5.47,1.51A12.088,12.088,0,0,1,27.9,31.321a34.29,34.29,0,0,0,24.9,12.619A12.084,12.084,0,0,1,73.376,32.926a24.225,24.225,0,0,0,7.669-2.931,12.125,12.125,0,0,1-5.311,6.68,24.088,24.088,0,0,0,6.936-1.9,24.545,24.545,0,0,1-6.024,6.255Zm0,0" transform="matrix(0.966, -0.259, 0.259, 0.966, -840.446, 6886.792)" fill="#a1775f"/>
    <g id="instagram" transform="matrix(0.966, 0.259, -0.259, 0.966, -722.208, 6704.554)">
      <path id="Path_1" data-name="Path 1" d="M183.811,142.439a10.006,10.006,0,0,0-5.734-5.734,16.717,16.717,0,0,0-5.61-1.04c-3.187-.145-4.142-.177-12.21-.177s-9.024.031-12.21.176a16.728,16.728,0,0,0-5.61,1.041,10.01,10.01,0,0,0-5.735,5.734,16.723,16.723,0,0,0-1.04,5.611c-.145,3.186-.177,4.141-.177,12.21s.031,9.023.177,12.21a16.718,16.718,0,0,0,1.04,5.61,10.006,10.006,0,0,0,5.734,5.734,16.7,16.7,0,0,0,5.611,1.041c3.186.145,4.141.176,12.209.176s9.025-.031,12.21-.176a16.7,16.7,0,0,0,5.611-1.041,10.006,10.006,0,0,0,5.734-5.734,16.732,16.732,0,0,0,1.041-5.61c.145-3.187.176-4.142.176-12.21s-.03-9.024-.176-12.21A16.7,16.7,0,0,0,183.811,142.439Zm-23.554,33.335a15.516,15.516,0,1,1,15.516-15.516A15.516,15.516,0,0,1,160.256,175.775Zm16.129-28.019a3.626,3.626,0,1,1,3.626-3.626A3.626,3.626,0,0,1,176.385,147.756Zm0,0" transform="translate(-107.636 -107.639)" fill="#a1775f"/>
      <path id="Path_2" data-name="Path 2" d="M227.144,217.072A10.072,10.072,0,1,1,217.072,207,10.072,10.072,0,0,1,227.144,217.072Zm0,0" transform="translate(-164.452 -164.452)" fill="#a1775f"/>
      <path id="Path_3" data-name="Path 3" d="M97.65,0H7.59A7.59,7.59,0,0,0,0,7.59V97.65a7.59,7.59,0,0,0,7.59,7.59H97.65a7.59,7.59,0,0,0,7.59-7.59V7.59A7.59,7.59,0,0,0,97.65,0Zm-15,65.077a22.168,22.168,0,0,1-1.4,7.335,15.45,15.45,0,0,1-8.837,8.837,22.184,22.184,0,0,1-7.334,1.4c-3.222.147-4.251.182-12.457.182s-9.235-.035-12.458-.182a22.184,22.184,0,0,1-7.334-1.4,15.45,15.45,0,0,1-8.837-8.837,22.163,22.163,0,0,1-1.4-7.334c-.149-3.223-.183-4.252-.183-12.458s.035-9.235.182-12.457a22.171,22.171,0,0,1,1.4-7.335,15.46,15.46,0,0,1,8.838-8.837,22.189,22.189,0,0,1,7.335-1.4c3.222-.147,4.251-.182,12.457-.182s9.235.035,12.457.183a22.194,22.194,0,0,1,7.335,1.4,15.454,15.454,0,0,1,8.837,8.838,22.166,22.166,0,0,1,1.405,7.335c.147,3.222.181,4.251.181,12.457S82.8,61.855,82.653,65.077Zm0,0" transform="translate(0)" fill="#a1775f"/>
    </g>
    <g id="youtube" transform="matrix(0.966, -0.259, 0.259, 0.966, -930.446, 6736.792)">
      <path id="Path_4" data-name="Path 4" d="M224.113,227.756,241.23,217.9l-17.117-9.858Zm0,0" transform="translate(-178.047 -165.278)" fill="#2b2c2e"/>
      <path id="Path_5" data-name="Path 5" d="M97.65,0H7.59A7.59,7.59,0,0,0,0,7.59V97.65a7.59,7.59,0,0,0,7.59,7.59H97.65a7.59,7.59,0,0,0,7.59-7.59V7.59A7.59,7.59,0,0,0,97.65,0ZM85.5,52.674s0,10.672-1.354,15.817a8.239,8.239,0,0,1-5.8,5.8C73.2,75.641,52.62,75.641,52.62,75.641s-20.53,0-25.729-1.408a8.24,8.24,0,0,1-5.8-5.8C19.74,63.345,19.74,52.62,19.74,52.62s0-10.671,1.355-15.817a8.407,8.407,0,0,1,5.8-5.85C32.036,29.6,52.62,29.6,52.62,29.6s20.584,0,25.729,1.408a8.24,8.24,0,0,1,5.8,5.8c1.408,5.146,1.354,15.87,1.354,15.87Zm0,0" transform="translate(0)" fill="#2b2c2e"/>
    </g>
    <path id="linkedin" d="M97.65,0H7.59A7.59,7.59,0,0,0,0,7.59V97.65a7.59,7.59,0,0,0,7.59,7.59H97.65a7.59,7.59,0,0,0,7.59-7.59V7.59A7.59,7.59,0,0,0,97.65,0ZM37.329,79.546H24.514V40.991H37.329Zm-6.407-43.82h-.084c-4.3,0-7.082-2.96-7.082-6.66,0-3.783,2.866-6.662,7.25-6.662s7.082,2.878,7.165,6.662c0,3.7-2.781,6.66-7.25,6.66Zm52.617,43.82H70.725V58.92c0-5.184-1.856-8.719-6.492-8.719a7.015,7.015,0,0,0-6.575,4.687,8.776,8.776,0,0,0-.422,3.127V79.546H44.421s.168-34.938,0-38.555H57.236V46.45a12.723,12.723,0,0,1,11.549-6.364c8.431,0,14.754,5.51,14.754,17.353Zm0,0" transform="matrix(0.966, -0.259, 0.259, 0.966, -994.446, 6886.792)" fill="#2b2c2e"/>
    <g id="facebook_1_" data-name="facebook (1)" transform="matrix(0.966, 0.259, -0.259, 0.966, -659.208, 6859.554)">
      <g id="Group_7" data-name="Group 7">
        <path id="Path_6" data-name="Path 6" d="M92.085,0H13.155A13.168,13.168,0,0,0,0,13.155v78.93A13.168,13.168,0,0,0,13.155,105.24H52.62V69.063H39.465V52.62H52.62V39.465A19.731,19.731,0,0,1,72.352,19.732H85.507V36.176H78.93c-3.631,0-6.577-.342-6.577,3.289V52.62H88.8L82.219,69.063H72.352V105.24H92.085A13.168,13.168,0,0,0,105.24,92.085V13.155A13.168,13.168,0,0,0,92.085,0Z" fill="#2b2c2e"/>
      </g>
    </g>
  </g>
</svg>
