<svg xmlns="http://www.w3.org/2000/svg" width="786.479" height="426" viewBox="0 0 786.479 426">
  <g id="Group_3" data-name="Group 3" transform="translate(1171 -5347)">
    <g id="Background_Shape_2" data-name="Background Shape 2" transform="translate(-1171 5488)" opacity="0.6">
      <path id="Background_Shape" data-name="Background Shape" d="M786.135,173.634c11.464,77.607-266.564,128.227-505.869,92.9S-68.821,93.253,45.372,19.745,774.671,96.027,786.135,173.634Z" transform="translate(0 0)" fill="#dde3e9"/>
    </g>
    <g id="Group_2" data-name="Group 2">
      <g id="Web" transform="translate(-965 5347)">
        <rect id="Container" width="335" height="346" rx="8" fill="#f2f2f2"/>
        <rect id="Background" width="70" height="81" rx="8" transform="translate(249 43)" fill="#fff"/>
        <g id="Profile_Info" data-name="Profile Info" transform="translate(259 58)">
          <circle id="Avatar" cx="16" cy="16" r="16" transform="translate(9)" fill="#dde3e9"/>
          <rect id="Name" width="50" height="6" rx="3" transform="translate(0 36)" fill="#dde3e9"/>
          <rect id="Name-2" data-name="Name" width="34" height="6" rx="3" transform="translate(8 46)" fill="#dde3e9"/>
        </g>
        <path id="Header" d="M8,0H327a8,8,0,0,1,8,8V27a0,0,0,0,1,0,0H0a0,0,0,0,1,0,0V8A8,8,0,0,1,8,0Z" fill="#a1775f"/>
        <g id="Buttons" transform="translate(9 10)">
          <circle id="buttons-2" data-name="buttons" cx="4" cy="4" r="4" fill="#f2f2f2"/>
          <circle id="buttons-3" data-name="buttons" cx="4" cy="4" r="4" transform="translate(12)" fill="#f2f2f2"/>
          <circle id="buttons-4" data-name="buttons" cx="4" cy="4" r="4" transform="translate(24)" fill="#f2f2f2"/>
        </g>
        <g id="Components" transform="translate(249 132)">
          <rect id="Background-2" data-name="Background" width="70" height="194" rx="8" fill="#fff"/>
          <g id="Rows" transform="translate(18 18)">
            <rect id="Data" width="34" height="26" rx="4" fill="#dde3e9"/>
            <rect id="Data-2" data-name="Data" width="34" height="25" rx="4" transform="translate(0 34)" fill="#afb9c5"/>
            <rect id="Data-3" data-name="Data" width="34" height="25" rx="4" transform="translate(0 67)" fill="#dde3e9"/>
            <rect id="Data-4" data-name="Data" width="34" height="25" rx="4" transform="translate(0 133)" fill="#dde3e9"/>
            <rect id="Data-5" data-name="Data" width="34" height="25" rx="4" transform="translate(0 100)" fill="#c5cfd6"/>
          </g>
        </g>
        <g id="Rows-2" data-name="Rows" transform="translate(16 44)">
          <g id="Row">
            <rect id="Container-2" data-name="Container" width="225" height="47" rx="4" fill="#fff"/>
            <g id="Text_Stuff" data-name="Text Stuff" transform="translate(9 14.1)">
              <rect id="Label" width="167" height="7.05" rx="3" fill="#dde3e9"/>
              <rect id="Label-2" data-name="Label" width="112.096" height="7.05" rx="3" transform="translate(0 11.75)" fill="#dde3e9"/>
            </g>
            <g id="Check" transform="translate(193.954 16.5)">
              <circle id="Background-3" data-name="Background" cx="7" cy="7" r="7" fill="#dde3e9"/>
              <circle id="Indicator" cx="3" cy="3" r="3" transform="translate(4 4)" fill="#f2f2f2"/>
            </g>
          </g>
          <g id="Row-2" data-name="Row" transform="translate(0 55)">
            <rect id="Container-3" data-name="Container" width="225" height="39" rx="4" fill="#fff"/>
            <g id="Text_Stuff-2" data-name="Text Stuff" transform="translate(9 11.7)">
              <rect id="Label-3" data-name="Label" width="167" height="5.85" rx="2.925" fill="#dde3e9"/>
              <rect id="Label-4" data-name="Label" width="112.096" height="5.85" rx="2.925" transform="translate(0 9.75)" fill="#dde3e9"/>
            </g>
            <g id="Check-2" data-name="Check" transform="translate(193.954 12.5)">
              <circle id="Background-4" data-name="Background" cx="7" cy="7" r="7" fill="#dde3e9"/>
              <circle id="Indicator-2" data-name="Indicator" cx="3" cy="3" r="3" transform="translate(4 4)" fill="#f2f2f2"/>
            </g>
          </g>
          <g id="Row-3" data-name="Row" transform="translate(0 102)">
            <rect id="Container-4" data-name="Container" width="225" height="39" rx="4" fill="#fff"/>
            <g id="Text_Stuff-3" data-name="Text Stuff" transform="translate(9 11.7)">
              <rect id="Label-5" data-name="Label" width="167" height="5.85" rx="2.925" fill="#dde3e9"/>
              <rect id="Label-6" data-name="Label" width="112.096" height="5.85" rx="2.925" transform="translate(0 9.75)" fill="#dde3e9"/>
            </g>
            <g id="Check-3" data-name="Check" transform="translate(193.954 12.5)">
              <circle id="Background-5" data-name="Background" cx="7" cy="7" r="7" fill="#dde3e9"/>
              <circle id="Indicator-3" data-name="Indicator" cx="3" cy="3" r="3" transform="translate(4 4)" fill="#afb9c5"/>
            </g>
          </g>
          <g id="Row-4" data-name="Row" transform="translate(0 243)">
            <rect id="Container-5" data-name="Container" width="225" height="39" rx="4" fill="#fff"/>
            <g id="Text_Stuff-4" data-name="Text Stuff" transform="translate(9 11.7)">
              <rect id="Label-7" data-name="Label" width="167" height="5.85" rx="2.925" fill="#dde3e9"/>
              <rect id="Label-8" data-name="Label" width="112.096" height="5.85" rx="2.925" transform="translate(0 9.75)" fill="#dde3e9"/>
            </g>
            <g id="Check-4" data-name="Check" transform="translate(193.954 12.5)">
              <circle id="Background-6" data-name="Background" cx="7" cy="7" r="7" fill="#dde3e9"/>
              <circle id="Indicator-4" data-name="Indicator" cx="3" cy="3" r="3" transform="translate(4 4)" fill="#f2f2f2"/>
            </g>
          </g>
          <g id="Row-5" data-name="Row" transform="translate(0 196)">
            <rect id="Container-6" data-name="Container" width="225" height="39" rx="4" fill="#fff"/>
            <g id="Text_Stuff-5" data-name="Text Stuff" transform="translate(9 11.7)">
              <rect id="Label-9" data-name="Label" width="167" height="5.85" rx="2.925" fill="#dde3e9"/>
              <rect id="Label-10" data-name="Label" width="112.096" height="5.85" rx="2.925" transform="translate(0 9.75)" fill="#dde3e9"/>
            </g>
            <g id="Check-5" data-name="Check" transform="translate(193.954 12.5)">
              <circle id="Background-7" data-name="Background" cx="7" cy="7" r="7" fill="#dde3e9"/>
              <circle id="Indicator-5" data-name="Indicator" cx="3" cy="3" r="3" transform="translate(4 4)" fill="#f2f2f2"/>
            </g>
          </g>
          <g id="Row-6" data-name="Row" transform="translate(0 149)">
            <rect id="Container-7" data-name="Container" width="225" height="39" rx="4" fill="#fff"/>
            <g id="Text_Stuff-6" data-name="Text Stuff" transform="translate(9 11.7)">
              <rect id="Label-11" data-name="Label" width="167" height="5.85" rx="2.925" fill="#dde3e9"/>
              <rect id="Label-12" data-name="Label" width="112.096" height="5.85" rx="2.925" transform="translate(0 9.75)" fill="#dde3e9"/>
            </g>
            <g id="Check-6" data-name="Check" transform="translate(193.954 12.5)">
              <circle id="Background-8" data-name="Background" cx="7" cy="7" r="7" fill="#dde3e9"/>
              <circle id="Indicator-6" data-name="Indicator" cx="3" cy="3" r="3" transform="translate(4 4)" fill="#f2f2f2"/>
            </g>
          </g>
        </g>
      </g>
      <g id="Mobile3" transform="translate(-679 5436)">
        <rect id="Container-8" data-name="Container" width="159" height="302" rx="8" fill="#a1775f"/>
        <circle id="Touch" cx="15" cy="15" r="15" transform="translate(64 253)" fill="#fff"/>
        <g id="Camera" transform="translate(64 16)">
          <circle id="Lens" cx="2" cy="2" r="2" fill="#fff"/>
          <rect id="Sensor" width="21" height="4" rx="2" transform="translate(9)" fill="#fff"/>
        </g>
        <g id="Rows-3" data-name="Rows" transform="translate(14 28)">
          <g id="Row-7" data-name="Row">
            <rect id="Background-9" data-name="Background" width="131" height="54" rx="4" fill="#fff"/>
            <g id="Text" transform="translate(39 16.2)">
              <rect id="Name-3" data-name="Name" width="73" height="8.1" rx="3" fill="#dde3e9"/>
              <rect id="Name-4" data-name="Name" width="49" height="8.1" rx="3" transform="translate(0 13.5)" fill="#dde3e9"/>
            </g>
            <circle id="Avatar-2" data-name="Avatar" cx="12" cy="12" r="12" transform="translate(9 15)" fill="#c5cfd6"/>
          </g>
          <g id="Row-8" data-name="Row" transform="translate(0 62)">
            <rect id="Background-10" data-name="Background" width="131" height="42" rx="4" fill="#fff"/>
            <g id="Text-2" data-name="Text" transform="translate(39 12.6)">
              <rect id="Name-5" data-name="Name" width="73" height="6.3" rx="3" fill="#dde3e9"/>
              <rect id="Name-6" data-name="Name" width="49" height="6.3" rx="3" transform="translate(0 10.5)" fill="#dde3e9"/>
            </g>
            <circle id="Avatar-3" data-name="Avatar" cx="12" cy="12" r="12" transform="translate(9 9)" fill="#c5cfd6"/>
          </g>
          <g id="Row-9" data-name="Row" transform="translate(0 112)">
            <rect id="Background-11" data-name="Background" width="131" height="42" rx="4" fill="#fff"/>
            <g id="Text-3" data-name="Text" transform="translate(39 12.6)">
              <rect id="Name-7" data-name="Name" width="73" height="6.3" rx="3" fill="#dde3e9"/>
              <rect id="Name-8" data-name="Name" width="49" height="6.3" rx="3" transform="translate(0 10.5)" fill="#dde3e9"/>
            </g>
            <circle id="Avatar-4" data-name="Avatar" cx="12" cy="12" r="12" transform="translate(9 9)" fill="#afb9c5"/>
          </g>
          <g id="Row-10" data-name="Row" transform="translate(0 162)">
            <rect id="Background-12" data-name="Background" width="131" height="42" rx="4" fill="#fff"/>
            <g id="Text-4" data-name="Text" transform="translate(39 12.6)">
              <rect id="Name-9" data-name="Name" width="73" height="6.3" rx="3" fill="#dde3e9"/>
              <rect id="Name-10" data-name="Name" width="49" height="6.3" rx="3" transform="translate(0 10.5)" fill="#dde3e9"/>
            </g>
            <circle id="Avatar-5" data-name="Avatar" cx="12" cy="12" r="12" transform="translate(9 9)" fill="#c5cfd6"/>
          </g>
        </g>
      </g>
      <g id="Mobile3-2" data-name="Mobile3" transform="translate(-1097 5471)">
        <rect id="Container-9" data-name="Container" width="159" height="302" rx="8" transform="translate(48)" fill="#2b2c2e"/>
        <circle id="Touch-2" data-name="Touch" cx="15" cy="15" r="15" transform="translate(112 253)" fill="#fff"/>
        <g id="Camera-2" data-name="Camera" transform="translate(112 16)">
          <circle id="Lens-2" data-name="Lens" cx="2" cy="2" r="2" fill="#fff"/>
          <rect id="Sensor-2" data-name="Sensor" width="21" height="4" rx="2" transform="translate(9)" fill="#fff"/>
        </g>
        <g id="Rows-4" data-name="Rows" transform="translate(62 28)">
          <g id="Row-11" data-name="Row">
            <rect id="Container-10" data-name="Container" width="131" height="54" rx="4" fill="#fff"/>
            <g id="Text_Stuff-7" data-name="Text Stuff" transform="translate(9 16.2)">
              <rect id="Label-13" data-name="Label" width="73" height="8.1" rx="3" fill="#dde3e9"/>
              <rect id="Label-14" data-name="Label" width="49" height="8.1" rx="3" transform="translate(0 13.5)" fill="#dde3e9"/>
            </g>
            <g id="Check-7" data-name="Check" transform="translate(110 20)">
              <circle id="Background-13" data-name="Background" cx="7" cy="7" r="7" fill="#dde3e9"/>
              <circle id="Indicator-7" data-name="Indicator" cx="3" cy="3" r="3" transform="translate(4 4)" fill="#f2f2f2"/>
            </g>
          </g>
          <g id="Row-12" data-name="Row" transform="translate(0 62)">
            <rect id="Background-14" data-name="Background" width="131" height="42" rx="4" fill="#fff"/>
            <g id="Text-5" data-name="Text" transform="translate(39 12.6)">
              <rect id="Name-11" data-name="Name" width="73" height="6.3" rx="3" fill="#dde3e9"/>
              <rect id="Name-12" data-name="Name" width="49" height="6.3" rx="3" transform="translate(0 10.5)" fill="#dde3e9"/>
            </g>
            <circle id="Avatar-6" data-name="Avatar" cx="12" cy="12" r="12" transform="translate(9 9)" fill="#c5cfd6"/>
          </g>
          <g id="Row-13" data-name="Row" transform="translate(0 112)">
            <rect id="Container-11" data-name="Container" width="131" height="42" rx="4" fill="#fff"/>
            <g id="Text_Stuff-8" data-name="Text Stuff" transform="translate(9 12.6)">
              <rect id="Label-15" data-name="Label" width="73" height="6.3" rx="3" fill="#dde3e9"/>
              <rect id="Label-16" data-name="Label" width="49" height="6.3" rx="3" transform="translate(0 10.5)" fill="#afb9c5"/>
            </g>
            <g id="Check-8" data-name="Check" transform="translate(110 14)">
              <circle id="Background-15" data-name="Background" cx="7" cy="7" r="7" fill="#dde3e9"/>
              <circle id="Indicator-8" data-name="Indicator" cx="3" cy="3" r="3" transform="translate(4 4)" fill="#f2f2f2"/>
            </g>
          </g>
          <g id="Row-14" data-name="Row" transform="translate(0 162)">
            <rect id="Background-16" data-name="Background" width="131" height="42" rx="4" fill="#fff"/>
            <g id="Text-6" data-name="Text" transform="translate(39 12.6)">
              <rect id="Name-13" data-name="Name" width="73" height="6.3" rx="3" fill="#dde3e9"/>
              <rect id="Name-14" data-name="Name" width="49" height="6.3" rx="3" transform="translate(0 10.5)" fill="#dde3e9"/>
            </g>
            <circle id="Avatar-7" data-name="Avatar" cx="12" cy="12" r="12" transform="translate(9 9)" fill="#c5cfd6"/>
          </g>
        </g>
      </g>
    </g>
  </g>
</svg>
