<svg xmlns="http://www.w3.org/2000/svg" width="533.196" height="357.231" viewBox="0 0 533.196 357.231">
  <g id="Group_7" data-name="Group 7" transform="translate(-693.805 -1093)">
    <g id="Scene_Home" data-name="Scene/Home" transform="translate(693.805 1093)">
      <g id="Clock" transform="translate(217.731 23.007)">
        <path id="Clock_Frame" data-name="Clock Frame" d="M30,0A30,30,0,1,1,0,30,30,30,0,0,1,30,0Z" transform="translate(0.258 -0.007)" fill="#2b2c2e"/>
        <ellipse id="Time" cx="1.5" cy="2" rx="1.5" ry="2" transform="translate(29.258 3.993)" fill="#f2f2f2"/>
        <circle id="Time-2" data-name="Time" cx="1.5" cy="1.5" r="1.5" transform="translate(5.258 27.993)" fill="#f2f2f2"/>
        <ellipse id="Time-3" data-name="Time" cx="2" cy="1.5" rx="2" ry="1.5" transform="translate(52.258 27.993)" fill="#f2f2f2"/>
        <circle id="Time-4" data-name="Time" cx="1.5" cy="1.5" r="1.5" transform="translate(29.258 51.993)" fill="#f2f2f2"/>
        <path id="Hand" d="M1.126,0,2.253,19.713H0Z" transform="translate(29.159 9.45)" fill="#afb9c5"/>
        <path id="Hand-2" data-name="Hand" d="M1.126,0,2.253,13.518H0Z" transform="translate(41.05 38.898) rotate(135)" fill="#afb9c5"/>
        <circle id="Time-5" data-name="Time" cx="2.5" cy="2.5" r="2.5" transform="translate(28.258 26.993)" fill="#c5cfd6"/>
      </g>
      <g id="Background_Shape_2" data-name="Background Shape 2" transform="translate(137.211 142.623)" opacity="0.346">
        <path id="Background_Shape" data-name="Background Shape" d="M-192.6,100.762c-4.089-45.037-223.485-131.962-264.215-89.3s-1.573,122.715,83.782,143.216S-188.512,145.8-192.6,100.762Z" transform="translate(473 0)" fill="#c29966"/>
        <path id="Background_Shape-2" data-name="Background Shape" d="M.086,85.6C3.765,47.341,201.179-26.505,237.829,9.734S265.2,122.2,188.4,139.615-3.593,123.862.086,85.6Z" transform="translate(137.429 44.424)" fill="#c29966"/>
      </g>
      <g id="Hanging_Lamp" data-name="Hanging Lamp" transform="translate(10.486)">
        <g id="Light" transform="translate(0 90.454)">
          <ellipse id="Hanging_Lamp_Light" data-name="Hanging Lamp Light" cx="23.938" cy="12.673" rx="23.938" ry="12.673" transform="translate(3.943 6.759)" fill="#f2f2f2"/>
          <path id="Hanging_Lamp-2" data-name="Hanging Lamp" d="M55.76,28.162A28.022,28.022,0,0,0,27.88,0,28.022,28.022,0,0,0,0,28.162" fill="#dde3e9"/>
        </g>
        <rect id="Wire" width="2" height="94" transform="translate(26.502)" fill="#dde3e9"/>
      </g>
      <g id="Hanging_Lamp-3" data-name="Hanging Lamp" transform="translate(79.847)" opacity="0.7">
        <g id="Light-2" data-name="Light" transform="translate(0 67.03)">
          <ellipse id="Hanging_Lamp_Light-2" data-name="Hanging Lamp Light" cx="17.893" cy="10.227" rx="17.893" ry="10.227" transform="translate(2.947 5.454)" fill="#f2f2f2"/>
          <path id="Hanging_Lamp-4" data-name="Hanging Lamp" d="M41.679,22.727C41.679,10.175,32.349,0,20.84,0S0,10.175,0,22.727" fill="#dde3e9"/>
        </g>
        <rect id="Wire-2" data-name="Wire" width="3" height="80" transform="translate(19.141)" fill="#dde3e9"/>
      </g>
      <g id="Lamp" transform="translate(403.356 61.279)">
        <path id="Body" d="M0,18.545,16.428,5.023a8.2,8.2,0,0,1,10.012,0l43.735,36a10.713,10.713,0,0,1,4.144,8.235V287.731" transform="translate(33.362 4.184)" fill="none" stroke="#cbcbcb" stroke-miterlimit="10" stroke-width="8"/>
        <rect id="Lamp_Base" data-name="Lamp Base" width="34" height="4" rx="2" transform="translate(90.632 291.721)" fill="#afb9c5"/>
        <g id="Lamp_Top" data-name="Lamp Top" transform="translate(26.509 0) rotate(45)">
          <path id="Lamp-2" data-name="Lamp" d="M18.587,0h0A18.587,18.587,0,0,1,37.174,18.587V34.357a0,0,0,0,1,0,0H0a0,0,0,0,1,0,0V18.587A18.587,18.587,0,0,1,18.587,0Z" fill="#c5cfd6"/>
          <ellipse id="Lamp-3" data-name="Lamp" cx="18.587" cy="3.661" rx="18.587" ry="3.661" transform="translate(0.101 30.168)" fill="#f2f2f2"/>
        </g>
      </g>
      <g id="Big_Leaf_Plant" data-name="Big Leaf Plant" transform="translate(0 222.524)">
        <g id="Big_Ass_Leaf" data-name="Big Ass Leaf" transform="translate(12.954 0)">
          <path id="leaf" d="M13.663.1A9.527,9.527,0,0,1,18.5.607c3.191,1.354,4.1,5.124,4.054,8.187-.047,3.3-.747,6.9,1.76,9.556,1.152,1.221,2.586,2.156,3.718,3.4a16.073,16.073,0,0,1,2.86,4.483c1.29,3,1.923,6.528.743,9.675-1.038,2.771-3.651,5.272-3.087,8.422.589,3.287,3.9,5.8,5.974,8.247,2.345,2.77,4.5,6.311,4.858,9.944a13.053,13.053,0,0,1-3.5,9.635C31.23,77.417,24.245,80,17.2,79.979c-2.991-.007-6.376-.142-8.957-1.749A4.936,4.936,0,0,1,6.551,76.4a5.962,5.962,0,0,0-1.637-1.638A9.716,9.716,0,0,1,1.8,70.6c-2.556-6.327-.513-14.154,3.065-19.772.848-1.331,1.542-2.612,1.13-4.2a16.194,16.194,0,0,0-2.42-4.574,36.789,36.789,0,0,1-2.7-4.27,9.691,9.691,0,0,1-.835-5.006A17.031,17.031,0,0,1,3.7,23.845c1.929-2.538,4.193-4.966,4.2-8.291.006-3.524-2.351-6.66-1.347-10.243a6.828,6.828,0,0,1,2.6-3.9A10.58,10.58,0,0,1,13.663.1Z" transform="translate(0)" fill="#dde3e9"/>
          <path id="middle_thing" data-name="middle thing" d="M.781.663A.812.812,0,0,1,1.814.029c.582.163.571.706.555,1.191A16,16,0,0,0,2.9,5.6,77.9,77.9,0,0,0,6.1,14.254a15.754,15.754,0,0,1,.961,8.908c-.6,2.876-1.547,5.677-2.163,8.556-.543,2.538-1.12,5.214-.294,7.745.8,2.437,2.554,4.421,3.82,6.623a31.225,31.225,0,0,1,3.94,14.819,27.71,27.71,0,0,1-.553,7.225c-.323,1.365-.756,3.209-1.926,4.151a1.336,1.336,0,0,1-1.915-.059c-.426-.6-.052-1.538.083-2.181a33.06,33.06,0,0,0,.563-8.457A30.534,30.534,0,0,0,7.3,53.5a27.371,27.371,0,0,0-3.446-6.73C2.395,44.6.88,42.435.278,39.871a16.231,16.231,0,0,1,.55-7.808c.7-2.7,1.624-5.326,2.575-7.954a13.957,13.957,0,0,0,.744-7.665C3.136,11.148.428,6.178.781.663Z" transform="translate(11.828 5.069)" fill="#c5cfd6"/>
        </g>
        <g id="Big_Ass_Leaf-2" data-name="Big Ass Leaf" transform="translate(18.024 5.632)">
          <path id="leaf-2" data-name="leaf" d="M51.194.891a12.105,12.105,0,0,1,5.4,3.118c3.026,3.262,2.1,8.191.427,11.791-1.8,3.875-4.523,7.77-2.987,12.217.706,2.044,1.893,3.9,2.563,5.955a20.767,20.767,0,0,1,.985,6.79c-.073,4.219-1.2,8.72-4.242,11.829-2.683,2.737-7.069,4.335-8.072,8.355-1.047,4.193,1.512,8.889,2.648,12.862,1.286,4.5,1.946,9.807.442,14.288-1.442,4.295-5.08,7.671-9.2,9.573-8.231,3.8-17.787,3.217-26.04-.466-3.5-1.564-7.4-3.485-9.581-6.728a6.344,6.344,0,0,1-1.019-3.043,7.655,7.655,0,0,0-1.054-2.789A12.526,12.526,0,0,1,.011,78.1C.357,69.284,6.89,61.091,14.056,56.308c1.7-1.133,3.189-2.287,3.545-4.377a20.973,20.973,0,0,0-.421-6.668,47.541,47.541,0,0,1-.908-6.454,12.642,12.642,0,0,1,1.667-6.355A22.24,22.24,0,0,1,26.962,23.8c3.6-2,7.543-3.692,9.306-7.622,1.869-4.165.763-9.1,3.834-12.814A8.883,8.883,0,0,1,45.206.1,13.511,13.511,0,0,1,51.194.891Z" transform="translate(0 0)" fill="#dde3e9"/>
          <path id="middle_thing-2" data-name="middle thing" d="M29.092.457A1.035,1.035,0,0,1,30.632.248c.6.5.3,1.135.026,1.7A20.964,20.964,0,0,0,28.98,7.412c-.7,3.946-.545,7.943-.782,11.931A20.63,20.63,0,0,1,24.655,30.4c-2.21,3.09-4.782,5.912-7.01,9-1.964,2.721-4.041,5.587-4.4,9.018-.346,3.3.671,6.574,1,9.845a40.911,40.911,0,0,1-3.154,19.614,36.208,36.208,0,0,1-4.431,8.266c-1.092,1.447-2.565,3.4-4.426,3.907A1.7,1.7,0,0,1,.023,88.971c-.182-.938.744-1.848,1.239-2.539a43.207,43.207,0,0,0,5.088-9.72,40.012,40.012,0,0,0,2.691-10.27,35.8,35.8,0,0,0-.5-9.776c-.571-3.326-1.207-6.688-.569-10.04.648-3.4,2.617-6.281,4.732-8.958,2.237-2.831,4.688-5.456,7.177-8.07a18.225,18.225,0,0,0,4.885-8.687C26.354,14.109,25.791,6.8,29.092.457Z" transform="translate(18.024 7.322)" fill="#c5cfd6"/>
        </g>
        <g id="Big_Ass_Leaf-3" data-name="Big Ass Leaf" transform="translate(0 31.541)">
          <path id="leaf-3" data-name="leaf" d="M7.494,0a10.718,10.718,0,0,1,8.25,4.257c2.354,2.923,2.83,6.493,3.786,9.977a8.906,8.906,0,0,0,2.728,4.633c1.3,1.071,2.96,1.286,4.521,1.809a10.549,10.549,0,0,1,6.633,6.64c1.214,3.75-.072,7.533.15,11.333.2,3.491,3.645,5.668,6.414,7.342,2.73,1.65,5.19,3.195,6.012,6.409a18.336,18.336,0,0,1-.043,10.582c-2.011,5.607-7.9,8.077-13.583,8.46-5.161.347-11.65-.2-15.526-3.944A11.026,11.026,0,0,1,13.781,59a25.864,25.864,0,0,1,.946-5.736,25.877,25.877,0,0,0,.963-4.024c.36-3.652-3.015-4.354-5.889-5.357A14.014,14.014,0,0,1,1.816,36.85,13.4,13.4,0,0,1,.458,26.784a11.751,11.751,0,0,1,2.673-4.7c.549-.6,1.322-1.094,1.818-1.72a2.321,2.321,0,0,0,.2-2.028C4.414,15.168,2.119,12.548,1.3,9.388c-.741-2.852-.3-6.4,2.3-8.24A6.809,6.809,0,0,1,7.494,0Z" transform="translate(0 0)" fill="#c5cfd6"/>
          <path id="middle_thing-3" data-name="middle thing" d="M1.88.361C5.4,4.109,6.355,9.195,6.636,14.124c.157,2.764-.006,5.679.806,8.36a14.044,14.044,0,0,0,4,5.706c3.38,3.337,7.149,6.73,8.137,11.559.58,2.834.189,5.762.99,8.565a23.558,23.558,0,0,0,3.573,7.2c1.257,1.733,2.894,3.059,4.267,4.674.419.493,1.019,1.219.846,1.915-.2.815-1.241,1.073-1.977.945-1.718-.3-3.163-1.938-4.286-3.131A26.966,26.966,0,0,1,18.823,54.2a24.056,24.056,0,0,1-2.706-7.435c-.45-2.719-.226-5.552-1.252-8.162-1.727-4.39-5.917-6.981-8.946-10.4-3.774-4.264-3.211-9.571-2.825-14.816.212-2.882.423-6.138-1.033-8.769C1.5,3.608.265,2.671.026,1.529-.193.483,1-.574,1.88.361Z" transform="translate(10.138 7.885)" fill="#afb9c5"/>
        </g>
        <path id="Base" d="M0,0C0,21.436,3.5,32.668,21.966,32.668S43.932,21.436,43.932,0Z" transform="translate(15.77 101.382)" fill="#a1775f"/>
      </g>
      <g id="Table" transform="translate(85.495 211.822)">
        <g id="Lamp-4" data-name="Lamp" transform="translate(12.991)">
          <rect id="Lamp_Base-2" data-name="Lamp Base" width="21" height="5" rx="2" transform="translate(12.502 81.178)" fill="#afb9c5"/>
          <path id="Lamp_Body" data-name="Lamp Body" d="M8.68,42a8.68,8.68,0,0,1,0-17.36h4.258A108.125,108.125,0,0,0,17,0h2.568a93.54,93.54,0,0,0,4.06,24.64h3.7a8.68,8.68,0,0,1,0,17.36Z" transform="translate(4.502 40.178)" fill="#dde3e9"/>
          <path id="Shade" d="M2.6.945S12.285,0,21.966,0,41.329.945,41.329.945l2.6,44.752s-10.983,1.052-21.966,1.052S0,45.7,0,45.7Z" fill="#c5cfd6"/>
        </g>
        <path id="Table-2" data-name="Table" d="M58.24,59V12.48H11.76V59H0V0H70V59Z" transform="translate(0.493 86.178)" fill="#a1775f"/>
      </g>
      <g id="Plant" transform="translate(435.59 197.741)">
        <g id="Succulents" transform="translate(7.779 0)">
          <path id="Thi_Succs_" data-name="Thi Succs!" d="M.215.117C5.19,11.939,13.647,20.153,18.126,32.445a69.8,69.8,0,0,1,3.831,23.333c.036,4.409-.04,8.821-.061,13.23-.02,4.3-.137,8.572-.5,12.844-.367,4.295-.777,8.539-.958,12.86-.141,3.367-.205,7.284-1.347,10.355-.908,2.443-3.214,2.8-3.827-.162A23.681,23.681,0,0,1,15,99.728c.048-2.171.174-4.34.239-6.511.259-8.712-.077-17.426.1-26.141.171-8.515,1.266-17.021.055-25.48-1-6.985-3.541-12.983-6.461-18.733C6.125,17.331,3.067,11.933,1.169,5.64A30.325,30.325,0,0,1,0,.017Q.133-.045.215.117Z" transform="translate(1.69 0)" fill="#c1dee2"/>
          <path id="Thi_Succs_2" data-name="Thi Succs!" d="M.548.347a9.474,9.474,0,0,1,2.2,2.779c.828,1.277,1.8,2.429,2.629,3.706C7.105,9.5,8.622,12.323,10.2,15.094a54.107,54.107,0,0,1,6.379,16.951c1.164,6.306,1.478,12.816,1.967,19.216.518,6.784,1.04,13.617,1.108,20.427a72.963,72.963,0,0,1-.171,9.319c-.228,1.886-1.079,3.493-3,3.478-4.076-.032-5.989-4.547-6.789-8.249A69.519,69.519,0,0,1,8.467,59.418c.225-6.723,1.392-13.344,1.9-20.041.535-7.089.233-14.054-2.2-20.729C6.928,15.275,5.5,11.982,4.215,8.632A32.38,32.38,0,0,0,2.483,4.411,40.51,40.51,0,0,1,0,0Z" transform="translate(0 23.093)" fill="#89c5cc"/>
          <path id="Thi_Succs_3" data-name="Thi Succs!" d="M9.763.292,10.138,0A37.265,37.265,0,0,1,8.631,4.135a33.744,33.744,0,0,0-.974,4.019c-.707,3.2-1.523,6.327-2.191,9.554-1.321,6.385-1.071,13.264-.2,20.349.818,6.692,2.112,13.374,2.729,20.064a92.118,92.118,0,0,1,.243,16.564c-.331,3.6-1.418,7.888-4.377,7.525-1.393-.171-2.12-1.848-2.413-3.741-.47-3.041-.569-6.237-.752-9.261C.283,62.46.2,55.733.121,49.054c-.076-6.3-.287-12.728.134-18.871a57.837,57.837,0,0,1,3.493-16.2c.957-2.6,1.868-5.254,2.943-7.728C7.205,5.07,7.835,4.021,8.351,2.835A7.322,7.322,0,0,1,9.763.292Z" transform="translate(37.737 9.012)" fill="#c1dee2"/>
          <path id="Thi_Succs_4" data-name="Thi Succs!" d="M.118.17c.539-.9,1.725,2.079,1.906,2.455q-.115-.28-.23-.559A24.836,24.836,0,0,1,4.45,7.736c.6,2.019,1.119,4.079,1.684,6.113,1.06,3.815,2.428,7.522,3.388,11.372a37.006,37.006,0,0,1,.945,11.32,96.7,96.7,0,0,0-.1,12.158,35.409,35.409,0,0,0,1.185,5.572c.429,1.855.767,3.735,1.275,5.567.116-.239.131.559.131.62a3.847,3.847,0,0,1-.214,1.276A3.435,3.435,0,0,1,10.576,64.1c-1.947.556-3.754-1.215-4.382-3.085a51.174,51.174,0,0,1-1.826-8.468A39.923,39.923,0,0,1,4,44.743c.23-5.17,1.166-10.272,1.419-15.44.275-5.627-.839-10.914-1.773-16.391A47.864,47.864,0,0,0,1.89,5.144,21.831,21.831,0,0,0,.59,2.288C.315,1.753-.243.8.118.17Z" transform="translate(1.69 42.806)" fill="#c1dee2"/>
          <path id="Thi_Succs_5" data-name="Thi Succs!" d="M5.774,20.106c-.223,6.446-.608,12.843-1.468,19.221-.877,6.509-1.885,13-2.728,19.51A131.96,131.96,0,0,0,.01,78.056C.095,82.792-.69,90.8,4.57,93.142,9.9,95.509,11.04,85.4,11.39,82.063a124.967,124.967,0,0,0,.128-19.308c-.334-6.606-.892-13.179-1.583-19.761-.768-7.311-1.37-14.655-1.853-21.987-.239-3.627-.3-7.247-.232-10.875A27.172,27.172,0,0,0,6.565,0L6.374.139" transform="translate(11.828 14.081)" fill="#69a1ac"/>
          <path id="Thi_Succs_6" data-name="Thi Succs!" d="M6.805,3.354c-.958,1.4-1.924,2.778-2.829,4.256A22.447,22.447,0,0,0,.453,16.98C-.468,24.9.271,33.444.45,41.6c.037,1.667-.174,3.284.483,4.87.6,1.439,1.71,2.535,2.771,2.529,2.273-.013,1.926-5.579,1.93-8.028.007-4.294-.475-8.631-.433-12.921A89.707,89.707,0,0,1,6.116,15.5,72.294,72.294,0,0,1,8.859,3.835C9.027,3.327,10.227-.6,9.093.078" transform="translate(38.3 51.254)" fill="#89c5cc"/>
          <path id="Thi_Succs_7" data-name="Thi Succs!" d="M8.033,0C6.539,0,6.548,7.449,6.5,8.406c-.162,3.453-.124,6.907-.227,10.36a187.806,187.806,0,0,1-1.633,22.59c-.61,4.01-1.316,8-2.076,11.983S.781,61.318.28,65.36A84.18,84.18,0,0,0,.136,77.113a102.888,102.888,0,0,0,.7,11.759c.127.961.276,1.919.435,2.874a22.786,22.786,0,0,0,.28,2.54c.36,1.212,1.9,1.608,2.943,1.419,2.812-.513,4.608-4.044,5.569-6.624a62.016,62.016,0,0,0,2.52-10.339,90.361,90.361,0,0,0,1.354-11.93,200.747,200.747,0,0,0-.7-24.4c-.324-4.511-.7-9-1.272-13.486-.571-4.464-1.3-8.908-1.78-13.385C9.84,12.292,9.5,9.034,9.275,5.768,9.221,4.989,9.176,0,8.033,0" transform="translate(27.035 12.391)" fill="#69a1ac"/>
          <path id="Thi_Succs_8" data-name="Thi Succs!" d="M15.174,66.54c-.244-7.821-3.387-42.175-4.1-51.633C10.892,12.54,9.17,2.684,8.947,0,8.341.759,8.393,12.565,8.4,15.278c.007,2.684-.326,5.323-.5,7.992-.174,2.724-4.2,37.9-4.723,40.514C2.14,68.991,1.444,74.334.907,79.657.385,84.845-.428,90.319.271,95.535A15.943,15.943,0,0,0,1.1,99.02c.448,1.192.754,2.294,1.114,3.541a7.2,7.2,0,0,0,3.231,4.6c3.295,1.7,5.064-2.149,5.96-5.5a89.679,89.679,0,0,0,2.783-16.412c.477-6.218,1.181-12.45.986-18.711" transform="translate(18.024 0)" fill="#89c5cc"/>
        </g>
        <g id="Planter" transform="translate(0 89.259)">
          <rect id="Vase" width="51" height="52" rx="2" transform="translate(6.398)" fill="#a1775f"/>
          <rect id="Leg" width="6" height="64" rx="2" transform="translate(0.398 6)" fill="#c5cfd6"/>
          <rect id="Leg-2" data-name="Leg" width="5" height="64" rx="2" transform="translate(29.398 6)" fill="#c5cfd6"/>
          <rect id="Leg-3" data-name="Leg" width="6" height="64" rx="2" transform="translate(57.398 6)" fill="#c5cfd6"/>
        </g>
      </g>
    </g>
    <g id="Group_3" data-name="Group 3" transform="translate(-61 31)">
      <g id="Head_Front" data-name="Head/Front" transform="translate(934.717 1165.707) rotate(-7)">
        <g id="Head" transform="translate(67.564 21)">
          <path id="Head-2" data-name="Head" d="M0,40.341,4.538,19.059A15.024,15.024,0,0,1,.58,8.3C1.405-3.523,17.769-.921,20.952,5.047s2.805,21.109-1.309,22.176c-1.641.425-5.136-.617-8.693-2.774l2.233,15.891Z" transform="translate(0 0)" fill="#b28b67"/>
        </g>
        <path id="hair" d="M81,19.168c-1.737-.287-6.416-.484-7.279-.484-.551,0-1.149.127-1.475-.383-.267-.417-.169-1.122-.249-1.606-.093-.562-.224-1.117-.357-1.671a17.049,17.049,0,0,0-1.753-4.481A13.72,13.72,0,0,0,63.4,4.632a20.724,20.724,0,0,0-9.852-1.363c-3.536.288-6.737,1.463-10.076,2.568a21,21,0,0,1-9.841.953c-3.353-.518-5.886-2.346-8.714-4.081A16.16,16.16,0,0,0,15.29.038,18.471,18.471,0,0,0,6.509,3.387,14.384,14.384,0,0,0,.847,9.85c-1.239,3.021-1.237,6.337.8,9.007,2.952,3.87,8.433,4.871,12.993,4.771a24.692,24.692,0,0,0,7.718-1.423c3.321-1.175,6.191-3.167,9.3-4.783a24.109,24.109,0,0,1,4.545-1.83c1.533-.436,3.043-.635,4.431.3a20.892,20.892,0,0,0,4.463,2.571,14.318,14.318,0,0,0,5.035.91C53.468,19.344,56.76,18.3,60,17.6c2.645-.572,5.476-1.142,8.173-.592,1.125.229,2.769.7,3.176,1.88-6.841,1.247-9.528,9.759-7.6,16.008,1.041,3.373,7.3,7.315,9.731,5.542,1.541-1.123.606-2.6,0-3.571C72.325,35,71.928,32.6,74.074,31.3c1.851-1.119,3.8,1.539,3.834,1.536.509-.04,4.9-2.541,7.933-6.191,2.988.178,3.441-1.8,2.728-3.425S83.4,19.564,81,19.168Z" transform="translate(0)" fill="#2b2c2e"/>
      </g>
      <g id="Bottom_Skinny_Jeans_1" data-name="Bottom/Skinny Jeans 1" transform="translate(985.667 1278.829)">
        <path id="Leg-4" data-name="Leg" d="M0,0,21.5,74.153l10.111,55.675H41.757L31.626,0Z" transform="translate(25.822 0)" fill="#784931"/>
        <path id="Leg-5" data-name="Leg" d="M14.656,0c1.5,38.522.908,59.533.573,63.033S12.987,89.972,0,131H10.555c17.2-39.361,23.2-62.8,25.177-67.97S43.531,36.853,52.037,0Z" transform="translate(1.505)" fill="#915b3c"/>
        <path id="Pant" d="M0,0Q8.388,38.274,29.014,122.191H43.857C44.954,64.769,40.29,26.976,32.213,0Z" transform="translate(25.36 0)" fill="#775746"/>
        <path id="Pant-2" data-name="Pant" d="M14.131,0C15.6,38.522,11.793,76.473,0,122.79H15.837A520.759,520.759,0,0,0,53.859,0Z" transform="translate(1.955)" fill="#a1775f"/>
        <g id="Left_Shoe" data-name="Left Shoe" transform="translate(0 116.903)">
          <path id="Shoe" d="M0,10.574l.551-8.9a.587.587,0,0,1,.532-.549L13.4,0,34.511,7.847a1.175,1.175,0,0,1,.721,1.422l-.869,3.068H1.165Z" transform="translate(0 11.162)" fill="#2b2c2e"/>
        </g>
        <g id="Right_Shoe" data-name="Right Shoe" transform="translate(55.165 116.903)">
          <path id="Shoe-2" data-name="Shoe" d="M0,10.574l.551-8.9a.587.587,0,0,1,.532-.549L13.4,0,34.511,7.847a1.175,1.175,0,0,1,.721,1.422l-.869,3.068H1.165Z" transform="translate(0 11.162)" fill="#2b2c2e"/>
        </g>
      </g>
      <g id="Body_Long_Sleeve" data-name="Body/Long Sleeve" transform="translate(942.914 1219.613) rotate(-7)">
        <path id="Skin" d="M.786,82.82c-.715-.445-1.5-2.122.394-3.432C5.894,76.123,12.686,70.41,13.6,68.529c1.877-3.847,18.3-53.356,18.3-53.356l14.028.054S22.862,67.671,21.874,70.145c-1.482,3.71,1.655,9.361,3,12.4-2.114.956-3.1-.264-4.172-1.484-1.146-1.3-2.4-2.6-5.243-1.264-3.639,1.71-6.648,4.424-10.234,4.424A8.263,8.263,0,0,1,.786,82.82ZM111.364,9.26l25.294-3.485A54.84,54.84,0,0,1,150.622,0c1.2-.035,3.1.4.264,2.791s-5.71,5.026-5.2,6.3,3.141.8,3.578,2.759q.437,1.958-12.833.637L115.9,20.706Z" transform="translate(0 33)" fill="#997659"/>
        <path id="Clothes_Back" data-name="Clothes Back" d="M0,.224,11.006,0C15.855,24.392,31.894,38.661,64.3,30.521l7.14,31.329c-30.365,6.7-58.389-3.367-66.852-36.514C2.394,16.755.473,7.794,0,.224Z" transform="matrix(0.996, 0.087, -0.087, 0.996, 70.352, 3.012)" fill="#d9d9d9"/>
        <path id="Clothes" d="M0,95.117Q11.438,33.645,48.287,0h1.09l.009.01L66.027,3.86c0,28.91,9.118,47.355,13.794,68.611H34.877c-.633,7.344-1.022,14.894-1.225,22.647Z" transform="translate(15.528)" fill="#f2f2f2"/>
        <path id="Shade-2" data-name="Shade" d="M9.133,42.318H0A221.483,221.483,0,0,1,7.4,0C6.61,13.363,6.272,31.551,9.135,42.318Z" transform="translate(50.405 30.152)" fill="#d9d9d9"/>
      </g>
    </g>
  </g>
</svg>
