<svg xmlns="http://www.w3.org/2000/svg" viewBox="0 0 1792 1238"><defs><style>.cls-1{fill:#fff;}</style></defs><title>logowhite</title><g id="Layer_2" data-name="Layer 2"><g id="Layer_1-2" data-name="Layer 1"><g id="Layer_2-2" data-name="Layer 2"><g id="Layer_1-2-2" data-name="Layer 1-2"><path class="cls-1" d="M1776.2,5.8a64,64,0,0,0-1.2,11.3c0,8.4-6.3,22.4-14.1,31.6-6.3,7.4-23.3,20.1-33.4,25-2.2,1.1-5.3,2.7-7,3.7s-5,2.6-7.5,3.7-8.1,4-12.5,6.4-9.5,5.1-11.4,6c-3.1,1.5-10.8,6.6-21.9,14.6-3.7,2.7-10.1,9.3-20.1,20.9-7.1,8.1-10.2,10-16.9,10-6.4,0-7.1-.4-17.1-8.4-7.6-6.1-7.9-6.3-16.7-7.5-7.8-1.2-10.5-1.1-20.4.4-10.8,1.5-17.1,3.7-28.5,9.8-1.1.6-5.1,2.7-9,4.7s-9.5,5.2-12.6,7.1l-8.8,5.4c-15.6,9.5-40.3,31-51.5,44.8-4.9,6-7.3,6.1-15.2.5-8.4-5.8-19.8-9-32.9-9.1-11.3-.1-31.8,3.5-44.8,7.7-4.3,1.4-8.7,2.6-9.8,2.6s-4.9,1.1-8.4,2.5c-6.3,2.6-18.1,5.4-22.1,5.5-3.7,0-4.7-2.6-5.6-14.8-.4-6.4-1.7-17.8-2.9-25.2s-2.5-15.8-2.9-18.5a33.5,33.5,0,0,0-2.1-8.3c-1.5-3.5-12-12-27.9-22.6-5.2-3.4-10.8-7.1-12.3-8.2-8.9-6-14.8-9.7-19.7-12.4-3-1.7-8.6-4.9-12.5-7s-9.5-5.2-12.5-6.7q-5.09-2.51-9.9-5.5c-2.5-1.5-5.2-2.8-6.1-2.8s-4.7-1.6-8.3-3.5-7.3-3.5-8.3-3.5-4.6-1.5-8.3-3.4c-9.2-4.8-47.3-17.7-61.1-20.7a84.67,84.67,0,0,1-10-2.9c-2.5-1-8.8-2.3-14-3a106.35,106.35,0,0,1-15.9-3.2,85.1,85.1,0,0,0-16-2.8c-16.3-1.4-22.3-2-30.3-3.2-6.6-.9-7.8-1.3-7.8-2.9,0-1.8-1.5-1.9-40-1.9-38.7,0-40,.1-40,1.9,0,1.6-.9,2-5.2,2.4-2.9.3-10,1-15.8,1.6s-15.2,1.6-21,2c-6.4.5-12.5,1.7-15.6,2.9a72.06,72.06,0,0,1-14,3.1A71.64,71.64,0,0,0,874.5,38c-1.6.6-7.7,2.4-13.5,4s-13,3.8-16,5a77.36,77.36,0,0,1-8.5,2.9c-4.7,1.2-16.9,5.4-18,6.1a40.81,40.81,0,0,1-6.4,2.5,61.12,61.12,0,0,0-10,4.6c-2.5,1.6-5.2,2.9-6.1,2.9-2.2,0-32.8,15.7-36.3,18.6-1.6,1.3-3.3,2.4-3.8,2.4-.8,0-6.6,3.3-15,8.5-1.5.9-12.5,8.4-17.9,12.2a427.44,427.44,0,0,0-39,31.5c-3.6,3.3-8.7,8.1-11.5,10.6-15.6,14.1-45.9,49.4-56.9,66.1-2.7,4.2-6.4,9.4-8.3,11.7s-3.3,4.4-3.3,4.8a27,27,0,0,1-2.8,4.9,246.12,246.12,0,0,0-18.3,30.2c-1.6,3.3-5,9.6-7.4,14-5,9.1-8.5,16.2-8.5,17.5a16.44,16.44,0,0,1-2.5,4.6,29.24,29.24,0,0,0-3.7,7.8,37.1,37.1,0,0,1-3.5,7.5,28.23,28.23,0,0,0-3.3,7.5,57.9,57.9,0,0,1-3.4,9.1A51.16,51.16,0,0,0,547,345a80.17,80.17,0,0,1-3.5,9.1,73.06,73.06,0,0,0-4.4,12c-1.1,4.1-3.6,12.1-5.5,17.9-5.9,17.7-8.6,27.2-9.7,34.5a88.65,88.65,0,0,1-3.5,13.5,60.19,60.19,0,0,0-2.9,12.5c-.9,8.9-2.4,16.1-4.5,20.8-1.1,2.6-2.2,9.1-2.9,17.5a176.94,176.94,0,0,1-3,21,160.15,160.15,0,0,0-3.1,21.7c-4.5,52-4.2,50-6.7,50.3l-2.3.3V684.9l2.2.3c2.1.3,2.4,1,3,7.8,1.1,11.1,2.6,27.5,4.2,45,.8,8.5,2.1,17.7,3,20.5s2.2,11.7,3,20c1,10.4,2,16.4,3.4,19.5,1.2,2.5,2.8,9.8,3.6,16.2s2.3,13.2,3.1,14.9a54.33,54.33,0,0,1,2.9,11.2c1.4,8.2,6.3,25.8,11.6,41.2,1.5,4.4,4.1,12,5.8,17,5,15.3,6.3,18.8,9.3,25a67.31,67.31,0,0,1,3.5,9,41.46,41.46,0,0,0,3.5,8.5,49.5,49.5,0,0,1,3.3,8.1,23.85,23.85,0,0,0,3.2,6.5,42.25,42.25,0,0,1,4.5,9.3,33.16,33.16,0,0,0,3.3,7A50.15,50.15,0,0,1,576,980c1.7,3.6,4.9,9.9,7.1,14s5.1,9.3,6.2,11.5a83.63,83.63,0,0,0,5.4,8.3c1.8,2.4,3.3,4.9,3.3,5.7a4,4,0,0,0,1.6,2.5,5.09,5.09,0,0,1,1.2,3.9l-.3,2.6-15,.8c-8.2.4-22,1.6-30.5,2.7s-20.4,2.4-26.5,2.9-13,1.7-15.5,2.6a100,100,0,0,1-13.9,3,139.11,139.11,0,0,0-17,3.8c-4.2,1.3-9.8,3-12.6,3.6a91.41,91.41,0,0,0-11,3.5c-3.4,1.3-10,3.5-15,5-15.1,4.3-27.7,8.6-33,11.2a40,40,0,0,1-8.5,3,58,58,0,0,0-9.7,3.6c-3.4,1.5-6.8,2.8-7.6,2.8s-5.3,1.4-9.9,3.1c-9.5,3.5-27.2,9-40.3,12.5-4.9,1.3-12,3.3-15.6,4.4a140.48,140.48,0,0,1-17,3.4,100.82,100.82,0,0,0-14.9,3.1c-5.7,2-42.8,5.5-66,6.2-13.7.4-22.3.1-39.5-1.6-12.1-1.2-24.5-2.8-27.5-3.6-21.8-5.3-27.3-6.9-36.5-10.2-8.3-3.1-19.8-8.1-25-11-1.6-.9-6-3.3-9.6-5.2a119.49,119.49,0,0,1-24.6-17.3c-8.4-7.4-20.5-21.3-23.3-26.8a17.66,17.66,0,0,0-2.9-4.4,13.28,13.28,0,0,1-2.2-4.4,83.49,83.49,0,0,0-3.5-8.8c-3.1-6.7-6.4-22.6-7.1-34.5-.8-12.6,2.9-35.3,7.2-45.4.7-1.7,2.1-5.5,3.1-8.5a40.48,40.48,0,0,1,3.3-8,51.37,51.37,0,0,0,3.6-6.8,19.66,19.66,0,0,1,3.2-5.4,19.64,19.64,0,0,0,3.5-5.2c3-5.9,15.4-20.9,23.9-29.2C79.3,861.8,94.4,850.8,105,846c2.5-1.1,7-3.3,10-4.9a64,64,0,0,1,11.8-4.5,37.69,37.69,0,0,0,8.5-3c1.2-.8,5.6-2,9.7-2.6a132.94,132.94,0,0,0,14.5-3.1c10-2.7,25.9-3.9,50-3.9,23.5,0,38.7,1.2,51.4,3.9,4.7,1.1,12.5,2.4,17.3,3s10.3,1.8,12.1,2.6a103.39,103.39,0,0,0,12.7,3.4,76.33,76.33,0,0,1,13.3,4.1,85.86,85.86,0,0,0,10.6,3.6A53.82,53.82,0,0,1,337,848a52.6,52.6,0,0,0,9.2,3.4,76.83,76.83,0,0,1,9.7,3.7c2.2,1,10,4.6,17.2,8s14.4,6.8,15.8,7.8a23.23,23.23,0,0,0,5.7,2.8c4.3,1.5,22.9,13.8,28.3,18.8a72.08,72.08,0,0,1,16.4,22.9c3.3,7,3.7,8.6,3.7,16.1,0,7.8-.3,9-4.4,17.7A58.27,58.27,0,0,1,427.3,966c-3.9,4.1-8.3,8.2-9.9,9s-4,2.2-5.4,3.1a119.52,119.52,0,0,1-12,5.4c-13,5.2-28.3,7.4-50.9,7.5-16.6,0-47.8-2.2-55.1-3.9-16.7-4-37.7-11.3-42.2-14.8-.7-.5-3.4-2.2-6-3.6-7.2-4.2-18.9-17.6-23.7-27.3-4.5-9-6-10.4-11.5-10.4-18.6,0-.8,34.6,27.4,53.2,4.7,3.1,10.3,6.1,12.5,6.8a75.43,75.43,0,0,1,8.8,3.7,49.54,49.54,0,0,0,10.5,3.4c3.1.6,9.1,2.1,13.2,3.4,4.7,1.6,13.2,3,23,4,8.5.9,20.2,2.2,26,3,18.3,2.5,27.4,2,57.3-3.4,5.9-1.1,12.2-2.7,14-3.6a74.82,74.82,0,0,1,7.7-3.2c13.2-4.5,31.3-20,41.7-35.6,7.1-10.6,9.8-19.3,9.8-32.2,0-16.9-4.9-27.3-20.7-43.2a147,147,0,0,0-37.3-27.4,67.46,67.46,0,0,1-7.6-4.5,29.65,29.65,0,0,0-7.5-3.5A42.72,42.72,0,0,1,381,848a36.07,36.07,0,0,0-7.5-3.3,39.25,39.25,0,0,1-8.5-3.6,51.83,51.83,0,0,0-10.4-4.2,60.28,60.28,0,0,1-9-3.4,46.29,46.29,0,0,0-8.8-2.9,83.55,83.55,0,0,1-10.5-3.3c-2.1-.8-9-2.9-15.3-4.5s-15.2-4-19.8-5.4a137.38,137.38,0,0,0-15-3.5c-3.7-.6-10.2-2-14.5-3-13.9-3.5-51.7-4.9-81.2-3-26,1.7-68.8,13.6-88.5,24.6-11.4,6.4-13.9,7.9-17,10-1.9,1.4-6.6,4.6-10.3,7.2-9.5,6.6-30,28-36.8,38.3-6.4,9.7-12.3,20.3-13.4,24a88.66,88.66,0,0,1-3.7,9.3,81.32,81.32,0,0,0-4.3,14.5C4.8,945.6,4.2,947,1.9,947,.1,947,0,948.2,0,975s.1,28,1.9,28c2.2,0,2.5.8,4.6,9.8,3.5,15.1,15.7,34.6,31.9,50.8,9.2,9.2,24.3,21.4,26.5,21.4a18.42,18.42,0,0,1,4.5,2.9,47.79,47.79,0,0,0,8.4,5.2,47.21,47.21,0,0,1,6.2,3.4c2,1.6,17.2,8.3,23,10.1a87.48,87.48,0,0,1,9.5,3.8,49,49,0,0,0,10.8,3.6,65.12,65.12,0,0,1,9.3,2.6c5,2.1,26.2,5.9,44.4,8.1,21.1,2.5,56.4,2.5,79.5,0,19.6-2.2,44-6.1,50.5-8.2a124.41,124.41,0,0,1,13.1-2.9,67.31,67.31,0,0,0,13-3.5,75,75,0,0,1,11.7-3.6,89.56,89.56,0,0,0,12-3.4,90.28,90.28,0,0,1,11.7-3.7c3.9-.9,7.5-2,8-2.5,1-.7,8.8-3.6,27.5-9.9,3.6-1.2,11.3-4,17.2-6.1s11.6-3.9,12.7-3.9a26.75,26.75,0,0,0,7.3-2.3,64.82,64.82,0,0,1,11.8-3.6,74.77,74.77,0,0,0,12.5-3.8,58.85,58.85,0,0,1,12.5-3.4,120.32,120.32,0,0,0,13-2.8c17-5.1,71-12.6,98-13.6,23.8-1,21.4-2.3,41.5,23.1,11.4,14.3,11.6,15.3,8.6,29.4-1.7,8.3-3.1,58.7-2.3,89.3l.7,29.9,2.8,2.4c3.9,3.3,8.8,3.2,11.8-.2,8.8-9.9,9.1-10,14.6-5,5.2,4.6,23.5,13.2,31.9,15,9.2,2,10.4,2.5,10.4,4.7,0,1.8,1.6,1.9,50.5,1.9,49.2,0,50.5,0,50.5-1.9,0-2.2,4.9-3.5,17-4.7a121.26,121.26,0,0,0,17.5-3.7c12.5-3.5,23.9-3.9,31.6-1.2,5.1,1.9,16.6,4.1,25.9,5,10.4,1,15,2.4,15,4.6,0,1.8,2.1,1.9,67,1.9,64.4,0,67-.1,67-1.8,0-2,4.4-3.1,21.4-5.2a138.32,138.32,0,0,0,16-3.4c4.4-1.4,11.9-3.2,16.6-4.2a77.2,77.2,0,0,0,13.5-3.9c2.8-1.1,7-2.7,9.5-3.4a79.21,79.21,0,0,0,10.6-4.2c3.4-1.6,6.8-2.9,7.6-2.9s4.5-1.5,8.4-3.3,8.5-4,10.4-4.7a48,48,0,0,0,6-3c1.4-.9,5.4-3.1,9-4.8a173.52,173.52,0,0,0,18.6-10.4c3.3-2.1,6.5-3.8,7.1-3.8a4.08,4.08,0,0,0,2.3-1.5c.7-.8,6.3-4.9,12.4-9a369.85,369.85,0,0,0,57.6-48.2c11-11.2,31.1-34.4,35.5-40.8,1.7-2.3,5.7-7.8,9.1-12.1a99.24,99.24,0,0,0,7.4-10.4,47.61,47.61,0,0,1,3.2-5c3.9-5.1,10.8-15.9,10.8-16.9,0-.5,1.1-2.2,2.4-3.8a59.06,59.06,0,0,0,5.1-7.8c1.4-2.8,4.7-8.6,7.1-13s5.1-9.6,6-11.5,2.7-5.8,4-8.6,2.2-5.8,1.8-6.8-.1-5,.5-8.9,1.7-20.5,2.2-36.7,1.4-34,1.9-39.5c2-23,3-37.3,4-59.5.6-12.9,1.5-27.8,2.1-33s1.1-14.7,1.3-21.2c.4-12.8,1-15.8,3.2-15.8.8,0,1.4-1,1.4-2.5s-.6-2.5-1.5-2.5a1.5,1.5,0,0,1,0-3c1.3,0,1.5-2.4,1.5-16,0-15.2-.1-16-1.9-16a3.49,3.49,0,0,1-2.6-1c-.3-.6-2.4-1-4.6-1-3.3,0-4.2.5-5.7,2.9-2.4,3.9-5.4,23.1-7.2,45.6a108.36,108.36,0,0,1-2.8,18,78.63,78.63,0,0,0-2.6,15c-.7,10.2-4.9,30.7-10.9,53.5-2.2,8.5-4.6,18.7-5.3,22.7a54,54,0,0,1-3.4,11.4,52.46,52.46,0,0,0-3.6,11,73.36,73.36,0,0,1-3.8,12.2,66.11,66.11,0,0,0-3.7,10.2,68.27,68.27,0,0,1-4.1,11c-1.5,3.3-2.8,6.9-2.8,8.1s-1.3,4-2.9,6.5a39.31,39.31,0,0,0-4.1,9.4,32,32,0,0,1-3,7.5,59.71,59.71,0,0,0-3.9,8,47.38,47.38,0,0,1-3.7,7.1c-.8.9-2.5,4.4-3.9,7.9s-3.1,7-3.9,7.9a49.76,49.76,0,0,0-4,6.6c-5,9.4-20.3,32.6-28.4,43.1-2.6,3.3-6.7,8.7-9.1,11.8-5.5,7.3-38.8,40.8-45.9,46.1-2.9,2.2-7,5.4-9,7.1s-9.1,6.6-15.7,10.9-14.3,9.3-17.1,11.1-5.5,3.4-6,3.4-3.6,1.5-6.7,3.4a52.8,52.8,0,0,1-9.4,4.6,66.82,66.82,0,0,0-8,3.5,45.87,45.87,0,0,1-8,3.5,71.46,71.46,0,0,0-8.4,3.6,65,65,0,0,1-12,4,57.79,57.79,0,0,0-11.1,3.6,37.26,37.26,0,0,1-10.5,2.9,55.68,55.68,0,0,0-10.8,2.5c-2.2.9-11,2.7-19.5,4s-19.1,3.1-23.5,3.9c-15.4,3-69.6,3.7-80,1.1-1.1-.3-7.2-1.4-13.5-2.6-15.8-2.9-19.8-4-20.4-5.7-.3-.8.6-4.7,2-8.6,5.3-15.1,5.6-16.4,5.1-31.2-.4-12.8-.7-14.7-3.6-22a100.73,100.73,0,0,0-4.1-9.5c-.5-.8-2.5-4.3-4.4-7.6-7-12.1-25.3-28.1-40.6-35.6-9.3-4.6-30.6-11.1-42-12.8-10.8-1.7-58-1.7-67.8,0-5.9,1-7.5.9-10.7-.4l-3.8-1.6.6-10.3c.6-12.2,3.6-24.6,7.8-32.5,6-11.2,13.1-21,15.9-22.2,3.6-1.5,6.7-.5,7.5,2.3,1.2,3.8,12.4,26,15.3,30.2,4.7,6.7,10.3,6.1,16-1.8,9.1-12.5,15.2-30.7,15.2-45.5,0-8.8,1-10.2,6.8-10.2a109.83,109.83,0,0,1,15,2c17.9,3.5,45.5,1.8,56.2-3.3,4-2,4.5-2.6,4.8-6,.4-5-2-7.2-19.1-17.1-7.5-4.3-14.2-8.5-14.8-9.3-2-2.4,1.9-6.4,11.2-11.3,17-8.9,19.4-10.3,22.1-12.4A120.3,120.3,0,0,1,925,892a118.51,118.51,0,0,0,11.4-7.1c1.7-1.5,6.9-5.2,11.6-8.4,10.1-6.8,11.1-7.6,23.8-17.9,18-14.6,20-17.3,17.1-22.8-1.4-2.6-6.8-4.8-11.8-4.8s-9.3-1.9-8.9-3.9c.2-.9,4-3.1,9.3-5.2,8.7-3.5,47.3-22.7,49.8-24.7a60.89,60.89,0,0,1,7.2-4.2c17.5-9.5,23.4-13,43.5-26.4,7.6-5,12.9-8.7,22.6-15.8,8.9-6.5,20.5-15.8,29.1-23.5,11.2-10,31.3-30.2,35.1-35.3,1.5-1.9,5.2-6.4,8.2-10,6.6-7.7,11-13.6,20.3-28.1,1.6-2.4,3.7-5.6,4.8-7.1s5-8.8,8.8-16.3,7.7-14.6,8.6-15.8c1.9-2.8,2-11.6,0-14.4-.8-1.1-3.5-2.6-6-3.2-3.4-.9-4.5-1.6-4.5-3.1,0-1.1.1-2,.3-2s4-1.4,8.7-3.1,12.3-4.3,17-5.9,11.1-4,14.3-5.4,6.7-2.6,7.8-2.6c5.2,0,13.9-6.8,13.9-11a10,10,0,0,0-5.2-8.1c-2.8-1.5-26-3.9-37.9-3.9-10.1,0-13-1.2-11.2-4.4,1.1-1.9,9.5-8.6,10.9-8.6,1.7,0,13.9-8.5,20.9-14.4,3.3-2.8,7.8-6.5,10-8.1s16.4-15.3,31.5-30.4c28.8-28.7,46.4-44.9,59-54.2,14.4-10.6,28-19.7,37-24.6,2.5-1.4,7.7-4.3,11.5-6.4s9.5-5.1,12.5-6.4,7.2-3.4,9.3-4.5a69.43,69.43,0,0,1,9.6-4,96.62,96.62,0,0,0,11-4.4,51.66,51.66,0,0,1,10.5-4,53.33,53.33,0,0,0,8.5-3.1,68.46,68.46,0,0,1,12-3.5,93.4,93.4,0,0,0,13.1-3.9,51.11,51.11,0,0,1,10.7-2.6c8.8-1,27.1-6,29.4-8.1,1.3-1.1,1.9-3,1.9-5.8,0-3.5-.9-5.2-5.5-11-5.4-6.7-6.6-9.8-4.4-11.1.6-.4,8.6-1.1,17.7-1.6s18.3-1.3,20.2-1.9a79.25,79.25,0,0,1,10-2c17.2-2.7,29.3-6.7,53-17.9a162.36,162.36,0,0,0,21.8-12.6c4.1-2.8,9.2-6.3,11.5-7.8,14.7-9.8,41.9-38,55.2-57.2,2.2-3.2,5.2-7.2,6.6-8.9,2.3-2.7,21.8-31,24.4-35.4.5-1,2.6-4.4,4.7-7.8s3.8-6.5,3.8-7.1a7.92,7.92,0,0,1,1.9-3.4c3.2-4.1,18.3-33.1,20.1-38.5a31,31,0,0,1,2.6-5.9,66.52,66.52,0,0,0,3.4-7.5c1.1-3,3.1-7.8,4.4-10.5a132.24,132.24,0,0,0,5-14.6,137.81,137.81,0,0,1,4.2-13.5,51.69,51.69,0,0,0,2.5-10.4c1.6-11.9,2.9-16,5-16,1.8,0,1.9-1.1,1.9-24V0h-14.6ZM1762.5,77c.8,2.5-.8,8.2-3.3,11.7a19.67,19.67,0,0,0-2.7,6.3c-.6,3.2-2.6,7.7-12.1,27.6a53.07,53.07,0,0,0-3.4,8c0,.6-1.4,3.2-3.1,6a44.63,44.63,0,0,0-4.2,7.9,35.12,35.12,0,0,1-3.8,7c-4.4,6.6-9.9,15.5-9.9,16.3s-7.6,12.4-17.5,26.7c-1.9,2.7-4.4,6.6-5.5,8.5-6.6,11.1-22.8,30.9-37.5,45.5-11.5,11.6-30.4,27.1-34.9,28.8a18.7,18.7,0,0,0-4.1,2.6c-3.8,3.5-35.8,19.1-39,19.1-1.1,0-4.4,1.2-7.4,2.5a57,57,0,0,1-13,3.6c-4.2.6-12.7,1.9-19,3-12.2,2.1-30.1,2.4-38.6.8-2.7-.5-8.1-1.2-12-1.5-6.5-.6-7.2-.4-9.7,1.9-5.6,5.2-3.2,12.2,8.4,24.3,3.4,3.6,3.9,4.6,3.6,8-.4,4.5-.9,4.8-18.8,8.5a266.25,266.25,0,0,0-37.4,11.1,103.42,103.42,0,0,1-10.3,3.4,55.22,55.22,0,0,0-10.1,3.9c-2.6,1.4-5.2,2.5-5.9,2.5-1.4,0-17.3,7.2-21.3,9.6-1.4.8-5,2.6-8,4s-6.08,3-9,4.8c-1.9,1.3-5.5,3.5-8,5a299.39,299.39,0,0,0-40.5,28.9c-4.4,3.9-24.4,23.6-44.5,43.7s-39.9,39.4-44.1,42.6c-13.9,10.7-28.8,20.6-33,21.9a71,71,0,0,0-7.4,3.3c-7.6,3.8-27.6,9.2-34.5,9.2-5.6,0-11.9,1.7-14.2,3.8-2.5,2.1-2.4,8.6.1,11.1,1.1,1.1,3.9,2.2,6.3,2.5s12.4,1.7,22.4,3.1,20,2.5,22.3,2.5c5,0,11.1,2.4,11.1,4.3,0,1.7-2.6,3.1-10.5,5.6a233.84,233.84,0,0,0-24,9.1c-5.1,2.4-19.5,8.6-26,11.2-9.3,3.7-19,8.6-20.6,10.4-4.1,4.7-3.5,9.3,1.7,12.4,3.9,2.4,3.1,2.5,38.1-1.1,25.8-2.6,27-1.9,19.1,11.3-2.4,3.9-5.1,8.7-6.2,10.7-3.2,6.3-24,33.2-34.8,45.1-13.3,14.5-33,32.8-46.3,43-21.4,16.4-48.3,35-50.4,35-.4,0-3.7,1.9-7.4,4.2-12.6,8.1-15.5,9.8-18.8,11.2a36.3,36.3,0,0,0-5.9,3.3,34.21,34.21,0,0,1-7,3.7,42.71,42.71,0,0,0-8,4,65,65,0,0,1-7.9,4,31.19,31.19,0,0,0-6.9,3.7,11,11,0,0,1-3.4,1.9c-.6,0-4.7,1.7-9.1,3.9-15.2,7.2-21.6,10.1-22.2,10.1a62.19,62.19,0,0,0-6.8,3.1c-3.4,1.7-9.6,4.4-13.7,6s-8.6,3.5-10,4.3a81.62,81.62,0,0,1-8,3.1c-5.2,1.7-11.1,6-13.1,9.7-1.3,2.4,1.3,8.3,4.2,9.9,1.7.9,7.1,1,20.9.5,10.2-.3,19.1-.2,19.8.3,2.6,1.6,1,6.2-2.8,8.2-1.9,1.1-5.1,3.1-7,4.5s-7.1,4.7-11.5,7.4-9.3,5.9-11,7-5.2,3.5-8,5.1-5.7,3.3-6.5,3.8c-7.7,4.7-16.1,9.1-17.2,9.1-.7,0-3.3,1.4-5.8,3a45.66,45.66,0,0,1-7.8,4.1c-4,1.3-14.3,7.4-15.4,9.1a12.89,12.89,0,0,0-.8,4.8c0,3,.8,4.4,4.8,8.2a64,64,0,0,0,8.9,7.1c4.7,3,6.3,6.2,4.1,8.4-1.3,1.3-3.1,1.2-13.9-.2a131.18,131.18,0,0,1-18.4-3.7c-14.7-4.7-15.9-5-18.8-3.9a8.38,8.38,0,0,0-4.4,4.8c-1.3,3.3-1.4,4.7-.3,10.4,1.7,9,.9,27.3-1.3,31.6-2.1,4.1-5,5.7-7.6,4.4-1-.6-3.4-5.1-5.4-10.1-2.9-7.2-3.5-9.9-3.1-13.3.5-3.7.3-4.5-2.5-7.1-3.8-3.7-7.8-3.2-15.1,1.8-4.3,3-9,4.7-9,3.3,0-2.1,3.9-11.1,6.1-14.1,1.6-2.2,2.9-4.5,2.9-5s1.8-3.8,4-7.1,4-6.7,4-7.5a8.32,8.32,0,0,1,1.8-3.9c2.2-3.1,8.3-14,11.8-21.1a51.21,51.21,0,0,1,5.1-8.3c1.2-1.6,2.3-3.4,2.3-4s1.6-3.7,3.6-6.7a71.88,71.88,0,0,0,4.9-8.4,115.21,115.21,0,0,1,6-10.1c2.4-3.9,5.7-9.3,7.1-12a71.51,71.51,0,0,1,5-8.2c1.3-1.7,2.4-3.5,2.4-4s3.3-5.9,7.3-12c6.5-10.1,10-15.8,14.7-24.2,1.6-2.7,9-14.2,20.6-31.5,3.2-4.9,7.3-11,8.9-13.7s5.5-8.6,8.6-13.1,6.3-9.4,7.2-10.8,3.7-5.2,6.2-8.5a103.69,103.69,0,0,0,6.1-9,142.66,142.66,0,0,1,8.8-12.5c3.9-5.2,8.9-12.2,11.1-15.5s6.5-9.3,9.5-13.4,7.8-10.6,10.7-14.5,8.1-10.9,11.7-15.6,9.2-11.9,12.4-16.1c56.1-74.3,124.4-143.1,179.2-180.4,4.7-3.2,9.7-6.7,11.2-7.9,2.7-2.1,8.9-6.2,15.2-10.1,1.8-1.1,4.6-2.9,6.3-4,11-7.1,15.4-9.7,29.3-17.5,3-1.7,8.9-5.1,13-7.5,12.5-7.3,26.4-14.6,53-28,38.3-19.2,37.7-19,40.9-12.7a70.25,70.25,0,0,1,3.6,9.5c2.2,7.6,6.9,9.9,12.4,6.1,2.3-1.6,2.3-2,1.9-13.3-.6-15.6,0-17.6,6.5-20.7,2.9-1.4,6.3-3.1,7.7-3.9,4.1-2.3,19.3-9.2,22-10a26.17,26.17,0,0,0,4.5-1.9,106.76,106.76,0,0,1,10-4.5c4.4-1.8,10-4.4,12.5-5.7,6.3-3.3,19-9,22-9.9a35.44,35.44,0,0,0,6.5-3,55.71,55.71,0,0,1,8-3.5,34.28,34.28,0,0,0,7.5-3.6,42.29,42.29,0,0,1,8-3.9c2.5-.9,7.2-2.9,10.5-4.5,7.8-3.8,26.2-12,27.1-12a16.16,16.16,0,0,0,3.3-1.9,41.07,41.07,0,0,1,8.2-4.1,35,35,0,0,0,6.9-3.5,27.21,27.21,0,0,1,6.5-3,45.61,45.61,0,0,0,7.5-3.4c1.4-.9,11.5-6.1,22.5-11.6s21.1-10.6,22.5-11.5a19.51,19.51,0,0,1,5-2.5,23.08,23.08,0,0,0,5.4-2.8c1.6-1.1,5.9-3.6,9.5-5.5s8.9-4.7,11.6-6.1,7.2-4.1,9.9-5.9,5.5-3.2,6.2-3.2a4.54,4.54,0,0,0,2.5-1.6c.7-.9,3.8-2.8,6.8-4.4a54.08,54.08,0,0,0,10-6.6c4.1-3.5,4.3-4,3.8-7.8-1.1-8.2-8.8-10.1-17.4-4.4-5.8,4-9.7,5.8-12.3,5.8-1.1,0-4.1,1.1-6.7,2.4-8.2,4.3-21.7,10.4-24.3,11.1a63.52,63.52,0,0,0-7,3,228.92,228.92,0,0,1-25,10.5c-4.1,1.5-9.5,3.5-12,4.5s-7.2,2.5-10.6,3.5a73.14,73.14,0,0,0-10.2,3.9,61.46,61.46,0,0,1-10.8,3.7,54.93,54.93,0,0,0-10.3,3.3,49.11,49.11,0,0,1-9.6,3.1,86.63,86.63,0,0,0-10.7,3.1c-2.5,1-9.7,3.2-16,4.8s-14.7,4.2-18.8,5.5c-13.1,4.2-31.4,9.5-35,10.1a26.58,26.58,0,0,0-6.4,2c-1.6.9-6.9,2.4-11.7,3.5a67.07,67.07,0,0,0-12.7,3.9,55,55,0,0,1-11,3.5,54,54,0,0,0-9.9,2.9,60.68,60.68,0,0,1-10,3.3c-7,1.8-7.2,1.8-9.2,0a6.18,6.18,0,0,1-2.1-3.7,86.29,86.29,0,0,0-2-10.2,200.55,200.55,0,0,1-2.9-23.8c-1.3-20.9-1.7-20.4,20.7-26.3,7-1.8,13.7-3.8,14.8-4.4,3.8-2,31.9-9.3,39.9-10.3,9.7-1.3,20.6-.3,26.1,2.2,4.8,2.3,10.3,7.7,14.7,14.5,3,4.6,3.5,4.9,7.8,5.2,4.7.3,4.7.3,11-6.9,21.8-24.9,39.4-40.8,59.9-54.3,4.1-2.7,9.3-6.2,11.5-7.6a102.27,102.27,0,0,1,9.5-5.4c3-1.5,7.2-3.6,9.3-4.8a53.45,53.45,0,0,1,7-2.9c1.8-.4,5.9-1.7,9.1-2.8A39.85,39.85,0,0,1,1586,139c7.9,0,17.9,5.1,33.2,17,4.5,3.5,9.4,5,16.3,5,10.4,0,15.2-3.5,28.9-20.8,11.5-14.8,26.3-28.2,34.2-31.3a31.53,31.53,0,0,0,6.1-3.3,35.52,35.52,0,0,1,7.3-3.7,30.86,30.86,0,0,0,6.3-3.2,41.69,41.69,0,0,1,7-3.6c5.3-2,17.6-8.9,20.2-11.2,4.5-4,12.1-8.7,14.2-8.8A2.62,2.62,0,0,1,1762.5,77Zm-725.3,3.6a191.37,191.37,0,0,1,19.5,2.9c3.7.8,11.8,2.4,17.8,3.5a207.35,207.35,0,0,1,20.3,5.1c5.1,1.6,10,2.9,11,2.9s4.6,1.4,8,3,7,3,7.7,3,4.4,1.6,8.1,3.5,7.3,3.5,8,3.5,4.1,1.5,7.6,3.3,7.9,3.9,9.8,4.6a41.1,41.1,0,0,1,7,4,134.79,134.79,0,0,0,12,7.6c19.8,11.5,55.3,41.5,68.7,58.1,22.7,28.2,28,35.4,28.2,38.1.1,1.5-13.5,8.1-20.8,10a34,34,0,0,0-7.7,2.8,54.68,54.68,0,0,1-8,3.1,102.89,102.89,0,0,0-11.9,4.4,65.5,65.5,0,0,1-9,3.4c-3,.7-12.8,4.9-26.3,11.2-4,1.9-7.7,3.4-8.3,3.4-1.2,0-17.2,7.3-20.9,9.6-1.4.8-4.5,2.4-7,3.5s-5.8,2.7-7.5,3.6-6.4,3.4-10.5,5.5c-13.6,6.9-20,10.5-21.9,12.2a5.66,5.66,0,0,1-2.7,1.6c-.5,0-4,2.1-7.8,4.5s-7.5,4.5-8.1,4.5a6.39,6.39,0,0,0-3.1,2.1,21.39,21.39,0,0,1-5.4,4c-1.9,1.1-5.7,3.5-8.5,5.4s-7.1,5-9.7,6.8c-5.3,3.6-14.6,10.6-22.6,17-2.9,2.3-6.8,5.2-8.5,6.5-5.6,4.1-29.3,26.1-38.4,35.6a436.16,436.16,0,0,0-33.9,39.7c-8.2,11.1-9.8,13.5-14.9,22.5-2.4,4.2-9.4,11.4-11.1,11.4-.2,0-.8-.9-1.4-2-.8-1.4-.4-4,1.4-10.4a147.88,147.88,0,0,0,3.7-17.3c.6-4.8,2-10.6,3.2-12.8a52.38,52.38,0,0,0,3.3-9.5,66.89,66.89,0,0,1,4.8-12.3c2-3.8,3.6-7.5,3.6-8.4a10.42,10.42,0,0,1,2-4.3,54.4,54.4,0,0,0,4.5-8.2,143.41,143.41,0,0,1,9-14.7c7.7-11,8.3-14.5,3.6-19.2-3.9-3.8-7.2-3.7-13.5.5l-7.6,4.9c-22.4,14.5-45.5,38.6-60.5,63.2-2.2,3.6-5.4,8.7-7.1,11.3a43.28,43.28,0,0,0-3.8,6.9,29,29,0,0,1-3,5.6,35.14,35.14,0,0,0-3.6,7.3,55.66,55.66,0,0,1-3.5,7.9,49.68,49.68,0,0,0-4,9.8c-2,6.8-5.7,11.8-7.5,10-2.1-2-2.2-9.2-.6-24.7,2.9-26.8,2.1-32.7-4.3-34.1-6.9-1.5-11.5,3.7-30.3,34.5-7.9,12.9-7.1,11.3-16.2,29.8-4.2,8.4-7.6,15.8-7.6,16.6s-1.3,3.9-2.9,7.2A61.92,61.92,0,0,0,794,506a101.18,101.18,0,0,1-4,11.6,73.87,73.87,0,0,0-3.9,13.1,37.55,37.55,0,0,1-2.9,9.9c-2,4-3.6,10.8-4.7,20.2a69.59,69.59,0,0,1-2.6,11.5c-1.5,4.6-2.5,12.9-3.8,31.8-1,14.1-1.6,27-1.3,28.7a30.65,30.65,0,0,1-.2,6.7c-1.2,6.2-5.2,4.8-16.1-5.8-6.4-6.3-17-13.8-22.9-16.2-7-2.9-15-.9-16.2,4.2-.4,1.4,0,6.9.9,12.2s2.4,16.6,3.2,25.1c1.6,15.5,4.3,35.9,5,37,.2.3.9,6.2,1.5,13s2,19.6,3.1,28.3c2.2,16.3,1.9,18.7-1.8,18.7-.8,0-5.1-3.7-9.7-8.3-15.1-15.2-29.6-23.3-45.5-25.6-20.6-3-41.1,3.6-41.1,13.2,0,2.9.9,4.3,5,8.4a55,55,0,0,0,6,5.1c2,.7,19,21.3,23.8,28.7,8.7,13.7,9.4,14.8,11.3,19.9a93.91,93.91,0,0,0,4.3,9,32.64,32.64,0,0,1,3.1,7.6c.4,1.9,1.7,6.6,3,10.5,3.9,11.5,5.7,27.9,5.3,46.7-.3,14.9-.5,16.8-2.3,18.8-2.2,2.4-2.1,2.4-17-1.3-5.5-1.4-14.2-3.1-19.3-3.8-8.3-1.1-9.5-1.5-11.7-4.1-1.4-1.6-2.5-3.7-2.5-4.6s-1.2-3.9-2.6-6.6a47.21,47.21,0,0,1-3.9-13.2c-.8-4.5-2.2-10-3.3-12.1s-2.4-8.1-3.1-13.3-2.2-11.5-3.3-14c-1.2-2.7-2.8-10.3-3.9-18.9-1.1-8-2.6-16.7-3.4-19.5a41.35,41.35,0,0,1-1.5-9.7,70.56,70.56,0,0,0-1.4-11.5c-.8-3.8-1.9-13.4-2.5-21.4-1.7-22-3.1-37.5-4.4-48.5-1.6-13.3-1.6-105.4,0-118.5.7-5.2,1.6-15.8,2.2-23.5,2.4-30.9,5.4-55.2,9.6-76.5a97.65,97.65,0,0,0,1.5-12.3,46.3,46.3,0,0,1,2.5-12.2,143.44,143.44,0,0,0,4-16.2c.9-4.8,2.7-12.2,4-16.3a106.8,106.8,0,0,0,3.4-14.1,41.75,41.75,0,0,1,3.5-11,43.07,43.07,0,0,0,3.5-11.3,50.27,50.27,0,0,1,3.5-11.5A52.36,52.36,0,0,0,648,354a79,79,0,0,1,3.7-11c1.4-3,3.5-8.3,4.8-11.7a55.31,55.31,0,0,1,3.9-8.5,33.07,33.07,0,0,0,2.7-7.2,44.36,44.36,0,0,1,4.6-10.4c1.8-3.1,3.3-6.1,3.3-6.8s1.6-3.8,3.5-7,3.5-6.4,3.5-7.1c0-1.3,6.7-13.8,10.9-20.3,1.3-1.9,4.6-7.4,7.4-12.2,6.8-11.3,11.2-17.8,21.6-31.7,4.7-6.2,10.1-13.4,12-16,6-8.2,45.2-46.4,56.6-55.2,17.8-13.7,35.3-25.2,47.5-31.1,3.6-1.7,7.6-3.9,9-4.8a34.67,34.67,0,0,1,7.4-3.4,61.92,61.92,0,0,0,9.1-4.1,49.27,49.27,0,0,1,9.6-4.1,42.37,42.37,0,0,0,7.7-3c1.2-.8,5.7-2.4,10-3.4s10.3-2.9,13.5-4c5.4-1.9,20.4-5.1,31.2-6.6a49.06,49.06,0,0,0,7.5-1.6C950.2,78.6,1008.3,77.3,1037.2,80.6Zm246.7,164.1c2.1,1.8,6.4,9.2,11.6,20.3,1.5,3,3.5,7.1,4.5,9,3.2,6.1,7.1,18,6.8,20.7-.2,2.1-1.3,2.9-6.3,4.8-12.8,4.9-27.6,11.1-39,16.5-4.4,2.1-12.5,5.9-18,8.4s-11.1,5.4-12.5,6.2-4.5,2.5-7,3.6a59.88,59.88,0,0,0-7,3.8,99.72,99.72,0,0,1-9.5,5.5c-13.6,7.4-16.5,9.1-25.7,14.9-42.6,27.1-70.6,48.4-108.2,82.1-23.5,21.1-72,70.4-83.8,85.2-1.8,2.3-8.9,10.6-15.8,18.5-12.7,14.4-17.3,20.1-33.3,40.2-10.3,13-14,17.8-18.7,24.1-1.9,2.5-6.5,8.4-10.2,13s-7.7,9.9-9,11.8c-2.7,4-17,24-21.1,29.5-1.5,2-5.1,7-8,11.1s-6.1,8.6-7.2,10.1c-3.6,5-10,14.3-15.4,22.5-3,4.4-6.2,9.1-7.2,10.5-3.8,5.1-12.4,17.6-13.5,19.5-.6,1.1-3.7,5.6-7,10s-7,9.8-8.4,12.1a125.12,125.12,0,0,1-11.1,16.2c-1.6,1.8-2.9,3.8-2.9,4.4s-1.2,2.6-2.6,4.5c-4.5,6-12.4,18-12.4,19.1a4.17,4.17,0,0,1-1.6,2.3c-.9.7-4.1,5.2-7.2,9.9s-8,12.2-11.1,16.7c-5.4,8-8.3,12.6-14.5,23-1.6,2.6-3.6,5.9-4.6,7.3a63.75,63.75,0,0,0-3.5,6,46.43,46.43,0,0,1-4.6,7,22.13,22.13,0,0,0-3.4,6,12.9,12.9,0,0,1-2.2,4.2,54,54,0,0,0-4.7,7.6c-10.3,19.6-13.3,23.2-18.4,23.2-4.2,0-5.6-1.4-4.9-4.6,5-23,6.1-30.5,6.1-44.4,0-8.2-.6-16.3-1.2-18.6a140.31,140.31,0,0,1-2.7-15.5,104.28,104.28,0,0,0-3.9-17.9c-1.4-3.6-2.7-7.6-3.1-9-1.1-3.9-9.2-21.1-13.8-29.2-5.1-8.8-18.1-26.3-20.2-27.2-2.3-.9-3.7-5.3-2.4-7.8.9-1.7,1.7-1.9,4.7-1.4,9,1.4,13.7,2.7,16.6,4.6,1.7,1,4.8,2.9,6.9,4,7,3.8,21.6,18.9,29.7,30.6,4.4,6.3,13.7,20.6,15.1,23.2,2.1,3.7,7.4,5.7,11.2,4.3,5.9-2.3,7.2-8.3,4.4-21.2a225.94,225.94,0,0,1-2.7-23.5,279.32,279.32,0,0,0-3.5-28.1c-1.4-6.7-2.5-14.6-2.5-17.6,0-8.9-2-26.5-4.5-39.2-3.4-16.9-4.2-29.6-2.2-31.4a4.19,4.19,0,0,1,3.6-.6c4.9,1.5,25.8,27.7,30.7,38.5,2.6,5.8,5.3,8,9.6,8a8.12,8.12,0,0,0,5.7-1.9c2.9-2.9,4.3-9,3.1-13.2-2-6.5-3.1-33.7-2.1-49.9,1.6-25,6.7-61.6,10.3-73,1.1-3.6,2.6-9.8,3.4-13.8a51.57,51.57,0,0,1,3.8-12,49,49,0,0,0,3.5-10.2,35.76,35.76,0,0,1,3.3-9,39.49,39.49,0,0,0,3.4-8.9,34.84,34.84,0,0,1,3.2-8,41.39,41.39,0,0,0,3.7-7.6,30.11,30.11,0,0,1,3.2-6.7c.8-.9,2.7-4.9,4.2-9,2.3-6.4,3-7.3,5.4-7.6,1.9-.2,2.9.2,3.4,1.4.9,2.4-1.4,50.5-3.2,65-1.2,10.3-3.5,38.1-3.5,42.9,0,.9,1.4,3,3.1,4.6,4.1,3.8,7.8,3.8,12.3-.1,2.9-2.6,3.6-4,4.2-8.8a77.27,77.27,0,0,1,2.7-12.2c1.1-3.6,3.4-12.6,5.2-20s4-15.3,4.9-17.4a103.35,103.35,0,0,0,3.5-11c1.1-3.9,2.8-9.4,3.9-12.1s2.9-7.9,4.2-11.5c4.7-13.8,6.7-18.8,9.2-23.1a40.84,40.84,0,0,0,3.3-6.9c.7-2.1,5.9-12.4,14-27.7,2-3.6,11.2-17.1,16.6-24.3,6.8-9,8.2-10.6,9.5-11.3a2.61,2.61,0,0,1,3,.4c2.1,1.7,1.2,6.3-3.1,16a116.46,116.46,0,0,0-5.5,17.5c-1.1,5.4-2.8,12.8-3.6,16.4-2.1,9-3.2,53.1-1.5,60.5,1.4,6.3,5.5,10.5,10.1,10.5,3.4,0,7.7-4.5,10.3-11a77.35,77.35,0,0,1,3.5-7.5c.8-1.7,3-5.7,4.7-9s4.3-7.8,5.8-10,2.7-4.4,2.7-5,1.4-2.8,3-4.9,3-4.4,3-4.9c0-.9,2.8-4.9,11-15.7a44.71,44.71,0,0,0,4-6c2-3.7,24.6-30.3,33.6-39.5a462.94,462.94,0,0,1,64.4-55.2c16.3-11.7,27-18.7,32.6-21.2,2.3-1.1,4.5-2.4,4.8-3,.9-1.5,18.2-11.4,30.6-17.5,1.9-1,4.6-2.4,6-3.2,4.1-2.4,22.7-11.3,27.8-13.3a69.86,69.86,0,0,0,8.2-3.9,44.45,44.45,0,0,1,7.4-3.2,73.33,73.33,0,0,0,9.3-4.1c3-1.6,6.2-2.9,7.2-2.9s4.1-1.3,7.1-2.9a43.72,43.72,0,0,1,9-3.6,44.81,44.81,0,0,0,8-3,51.66,51.66,0,0,1,7.5-2.9c1.7-.4,6.6-2.3,11-4.1,10.7-4.4,25.4-9.2,28.6-9.4a9.17,9.17,0,0,1,4.8,1.6Zm174.6,25.7c2.9,2.1,1.1,4.3-5.1,6.1a31.3,31.3,0,0,0-8.2,3.5,35.45,35.45,0,0,1-7.5,3.6A87.45,87.45,0,0,0,1427,288a58.25,58.25,0,0,1-9.5,4,39.58,39.58,0,0,0-7.5,3.4,34.28,34.28,0,0,1-7.5,3.6,77.94,77.94,0,0,0-9.6,4.2,42.89,42.89,0,0,1-6.5,2.8,30.53,30.53,0,0,0-4.8,1.9c-31.5,14.9-32.6,15.3-36.2,14.9-2.7-.3-3-.8-4.3-7s-1.2-7,.3-9.2c2.1-3.3,8.3-6.4,15.1-7.7a60.71,60.71,0,0,0,11.9-3.9c3.6-1.7,7.5-3,8.7-3s6.1-1.3,11-3,13-4,18.1-5.4a127,127,0,0,0,14.1-4.5,57.92,57.92,0,0,1,12-3.2c3.9-.6,8.1-1.8,9.4-2.6,6-3.9,13.6-5.3,16.8-2.9Zm-141.8,45.8c1,1.3,2.6,7.1,3.8,13.4.5,2.6,0,3.8-2.5,6.7a18.73,18.73,0,0,1-6.8,4.8,90,90,0,0,0-10.2,4.5c-3.6,1.9-8.5,4.3-11,5.4s-10.8,5.4-18.5,9.5-17.1,9-21,11-8.3,4.3-10,5.3c-7.4,4.3-22.5,12.9-27.6,15.6-5.3,2.9-20.1,11.9-31.4,19.1-2.7,1.7-6.4,4-8.2,5.1-3.7,2.3-23.3,16.2-35.4,25.2-38.6,28.7-85.8,72.9-124.6,116.8-14.4,16.3-41.6,49.2-50.8,61.5-1.1,1.4-6.7,8.9-12.4,16.5-10.6,14.2-15,20.2-21.2,28.7-1.9,2.7-4.3,6-5.5,7.5s-5.4,7.6-9.5,13.5-8.7,12.8-10.4,15.2c-3.4,4.8-6.7,9.7-13.8,20.4-2.7,4.1-5.7,8.6-6.7,10-1.9,2.8-13.7,20.9-21.5,33.1-2.6,4.1-5.8,9.1-7.1,11.1a21.57,21.57,0,0,0-2.4,4.1c0,.5-6.4,10.3-10.5,16-1.9,2.7-8.1,13-10.4,17.3a225.67,225.67,0,0,1-12.3,19.2c-1.6,2-2.8,4.1-2.8,4.8s-1.8,4-4,7.4-4,6.6-4,7.1a13.45,13.45,0,0,1-2.4,3.7,53.55,53.55,0,0,0-5,7.8c-1.5,2.7-4.7,8.6-7.2,13s-5.1,9.6-6,11.5a28.46,28.46,0,0,1-3.1,5.2,54,54,0,0,0-4.7,7.6c-3.6,7-9.1,16.9-14.6,26.7-2.1,3.8-5.3,9.9-6.9,13.3a68.73,68.73,0,0,1-5,9,24.75,24.75,0,0,0-2.6,5.1,51.14,51.14,0,0,1-4.1,8c-1.9,3.1-3.4,6.2-3.4,6.9s-1.4,3.3-3,5.8a43,43,0,0,0-4.5,8.3,39.37,39.37,0,0,1-3.8,7.7,37.5,37.5,0,0,0-3.2,6.4c-.8,2.7-11.7,23.9-14.3,27.7-.8,1.3-2.1,2.3-2.8,2.1-3.4-.8-14.6-19.7-14.7-24.8,0-2.7,3-11.3,6.8-19.5,1.2-2.8,2.6-6.1,3-7.5a66.82,66.82,0,0,1,3.5-8,77.27,77.27,0,0,0,4-9.2,29.51,29.51,0,0,1,3.5-7.1,36.19,36.19,0,0,0,3-5.8,49.06,49.06,0,0,1,3.3-6.9c1.4-2.5,5.1-9.5,8.2-15.6a149.85,149.85,0,0,1,8.2-14.5,25.41,25.41,0,0,0,3.3-5.8,35.72,35.72,0,0,1,3.5-6.5c1.5-2.2,4.7-7.5,7-11.6,4.3-7.6,9.1-15.2,14-22.5,1.5-2.2,3.7-5.8,4.9-8a46.1,46.1,0,0,1,4-6.5c1-1.4,5.2-7.7,9.3-14s10.2-15.5,13.4-20.3,6.8-10.3,7.9-12,3.1-4.8,4.5-6.7,3.4-4.9,4.5-6.6,5.2-7.9,9.1-13.6,8.3-12.1,9.7-14.3,5.8-8.5,9.7-14,9.5-13.6,12.5-18c8.1-11.9,18.1-26.2,23.1-33,2.5-3.3,6-8.3,7.9-11,5.5-8,17.5-24.6,23.6-32.6,3-4.1,6.4-8.6,7.5-10,5.1-7,24.2-32,28.3-37,2.5-3.1,6.4-8,8.6-10.9s6.7-8.5,10-12.3C977.3,569,988.4,555.8,994,549c31-37.8,107.6-110.3,146.5-138.7,4.4-3.2,10.3-7.5,13-9.6,6.5-4.8,40.6-27.6,46.9-31.3,6.1-3.7,14.8-8.6,20.7-11.8a26.44,26.44,0,0,0,5.8-3.9c.6-.8,3.7-2.5,6.9-3.8a59.17,59.17,0,0,0,8.2-3.9c3.4-2.2,35.3-18,36.5-18a63.56,63.56,0,0,0,8.5-3.4c20.4-9.1,27.6-11.1,29.7-8.4ZM660.7,903c5.2.6,9.9,1.8,13,3.4a53.74,53.74,0,0,0,9.5,3.7c9.9,2.4,8.2,6.9-2.6,6.9-19.5,0-36.5-7.7-30.4-13.8C651.6,901.8,650.6,901.8,660.7,903Zm37,32.1c2.1,1.8,1.1,5.9-3.2,12.1-1.9,2.9-3.5,5.7-3.5,6.2a16.49,16.49,0,0,1-2.2,4.4,54.81,54.81,0,0,0-4.3,9.1c-2.9,7.9-5.4,8.1-9.2.9-1.5-2.9-3.6-7.3-4.6-9.7a52.59,52.59,0,0,0-3.7-7.2c-3.1-4.2-6.2-15-4.8-16.6C663.7,932.4,695.4,933.2,697.7,935.1Zm138.8,130.3c28,7.6,38.3,12.3,52.3,23.6,4.9,3.9,12.7,13.6,14.2,17.6a51.75,51.75,0,0,0,4,7.4c6.8,10.7,6.8,38.6,0,48.8a25.38,25.38,0,0,0-3,5.2c0,.4-1.1,1.2-2.5,1.8-2,.9-3.4.8-6.8-.4-2.3-.8-7.3-2.4-11.2-3.5a106.37,106.37,0,0,1-12.5-4.5c-3-1.5-8.6-4.1-12.5-5.9-23.2-10.9-30.7-14.8-32.4-16.9a4.14,4.14,0,0,0-2.6-1.6c-.6,0-3.7-1.8-6.8-4s-6-4-6.5-4-2.9-1.6-5.3-3.5-9.3-7.3-15.4-12.1-14-11.4-17.6-14.8-7.8-6.9-9.2-7.9c-3.5-2.3-3.4-5.2.2-8.5,4.1-3.8,6-7.8,5.4-11.6-.6-3.5.7-5.1,4.7-5.9,1.4-.2,15.1-.5,30.5-.6C824.5,1064,832.8,1064.3,836.5,1065.4Zm-131.6,76.1a82,82,0,0,1,7.6,5.5c2.3,1.9,6.8,5.3,10,7.5s7.5,5.5,9.7,7.2,4.4,3.3,4.9,3.3,3.8,1.9,7.2,4.2,7.4,4.9,8.8,5.9,5.2,3,8.5,4.7,6.6,3.7,7.3,4.6a4.31,4.31,0,0,0,2.4,1.6c.6,0,8.8,3.8,18.3,8.5s17.7,8.5,18.4,8.5a17.13,17.13,0,0,1,4.3,1.7,67.71,67.71,0,0,0,9.2,3.8c6,2,8.2,4.6,5,5.9-.9.3-9.8,1.8-19.8,3.3-16.3,2.4-21.2,2.6-47.2,2.7l-29,.1-13.5-3.4c-7.4-1.8-15.6-4.4-18.2-5.7s-5.3-2.4-6-2.4c-2-.1-14.9-8.7-19.7-13.2-3.9-3.8-4.3-4.5-3.8-8,.7-5.4,10.7-25.2,19.2-38.3,1.8-2.8,3.8-6,4.5-7.3,1.3-2.6,4.8-4.3,7-3.3C700.8,1139.3,703,1140.5,704.9,1141.5Z"/></g></g></g></g></svg>